<svg xmlns="http://www.w3.org/2000/svg" xmlns:xlink="http://www.w3.org/1999/xlink" id="Choice_Coupled_" width="75" height="75" data-name="Choice Coupled" viewBox="0 0 75 75"><defs><style>.cls-1,.cls-5,.cls-6{fill:none}.cls-2{clip-path:url(#clip-path)}.cls-3{fill:#feb155}.cls-4{fill:#ffd164}.cls-5,.cls-6{stroke:#000}.cls-5{stroke-width:2px}.cls-6{stroke-width:3px}.cls-7{fill:#fff}</style><clipPath id="clip-path"><rect width="75" height="75" class="cls-1"/></clipPath></defs><title>manage-pro</title><rect width="75" height="75" class="cls-1"/><g class="cls-2"><g><circle cx="37.5" cy="37.5" r="37.5" class="cls-3"/><g><rect id="Rectangle_1_copy" width="25.8" height="25" x="19.9" y="22.7" class="cls-4" data-name="Rectangle 1 copy"/><path id="Shape_14_copy" d="M21.1,31.8H45.8" class="cls-5" data-name="Shape 14 copy"/><path id="Rounded_Rectangle_2_copy" d="M21.1,21.6H44.6a2.26,2.26,0,0,1,2.3,2.3V46.7A2.33,2.33,0,0,1,44.6,49H21.1a2.26,2.26,0,0,1-2.3-2.3V23.8A2.18,2.18,0,0,1,21.1,21.6Z" class="cls-6" data-name="Rounded Rectangle 2 copy"/><rect width="25.8" height="25" x="29.3" y="27.3" class="cls-7"/><path d="M29.3,36.4H54" class="cls-5"/><circle id="Ellipse_15_copy_3" cx="26.1" cy="28.4" r="1.5" data-name="Ellipse 15 copy 3"/><path id="Rounded_Rectangle_2" d="M30.5,26.1H54a2.26,2.26,0,0,1,2.3,2.3V51.2A2.33,2.33,0,0,1,54,53.5H30.5a2.26,2.26,0,0,1-2.3-2.3V28.4A2.2,2.2,0,0,1,30.5,26.1Z" class="cls-6" data-name="Rounded Rectangle 2"/><circle cx="34.3" cy="32.9" r="1.5"/><circle id="Ellipse_15_copy" cx="38" cy="32.9" r="1.5" data-name="Ellipse 15 copy"/><circle id="Ellipse_15_copy-2" cx="41.5" cy="32.9" r="1.5" data-name="Ellipse 15 copy"/></g></g></g></svg>