<svg xmlns="http://www.w3.org/2000/svg" xmlns:xlink="http://www.w3.org/1999/xlink" id="Layer_1" x="0" y="0" version="1.1" viewBox="0 0 1078.1 331.4" xml:space="preserve" style="enable-background:new 0 0 1078.1 331.4"><style type="text/css">.st0{fill:url(#SVGID_1_)}.st1{opacity:.5}.st2{fill:none;stroke:#fff;stroke-miterlimit:10}.st3{opacity:.4}.st4{fill:url(#SVGID_2_)}.st5{fill:url(#SVGID_3_)}.st6{fill:#fff}.st7{fill:url(#SVGID_4_)}.st8{opacity:.2}.st9{fill:url(#SVGID_5_)}.st10{fill:url(#SVGID_6_)}.st11{fill:url(#SVGID_7_)}.st12{fill:url(#SVGID_8_)}.st13{fill:url(#SVGID_9_)}.st14{fill:url(#SVGID_10_)}.st15{fill:#98b4f7}.st16{fill:url(#SVGID_11_)}.st17{fill:url(#SVGID_12_)}.st18{fill:url(#SVGID_13_)}.st19{opacity:.3}.st20{fill:url(#SVGID_14_)}.st21{fill:url(#SVGID_15_)}.st22{fill:url(#SVGID_16_)}.st23{fill:url(#SVGID_17_)}.st24{fill:url(#SVGID_18_)}.st25{fill:#0a49ac}.st26{fill:url(#SVGID_19_)}.st27{fill:url(#SVGID_20_)}.st28{fill:url(#SVGID_21_)}.st29{fill:#2b6af0}.st30{fill:none;stroke:#fff;stroke-linecap:round;stroke-linejoin:round}.st31{fill:url(#SVGID_22_)}.st32{fill:url(#SVGID_23_)}.st33{fill:url(#SVGID_24_)}.st34{fill:url(#SVGID_25_)}.st35{fill:url(#SVGID_26_)}.st36{fill:url(#SVGID_27_)}.st37{fill:url(#SVGID_28_)}.st38{fill:url(#SVGID_29_)}.st39{fill:url(#SVGID_30_)}.st40{fill:url(#SVGID_31_)}.st41{fill:url(#SVGID_32_)}.st42{fill:url(#SVGID_33_)}.st43{fill:url(#SVGID_34_)}.st44{fill:url(#SVGID_35_)}.st45{fill:url(#SVGID_36_)}.st46{fill:url(#SVGID_37_)}.st47{fill:url(#SVGID_38_)}.st48{fill:url(#SVGID_39_)}.st49{fill:url(#SVGID_40_)}.st50{fill:url(#SVGID_41_)}.st51{fill:url(#SVGID_42_)}.st52{fill:url(#SVGID_43_)}.st53{fill:url(#SVGID_44_)}.st54{fill:url(#SVGID_45_)}.st55{fill:url(#SVGID_46_)}.st56{fill:url(#SVGID_47_)}.st57{fill:url(#SVGID_48_)}.st58{fill:url(#SVGID_49_)}.st59{fill:url(#SVGID_50_)}.st60{fill:url(#SVGID_51_)}.st61{fill:url(#SVGID_52_)}.st62{fill:url(#SVGID_53_)}.st63{fill:url(#SVGID_54_)}.st64{fill:url(#SVGID_55_)}.st65{fill:url(#SVGID_56_)}.st66{fill:url(#SVGID_57_)}.st67{fill:url(#SVGID_58_)}.st68{fill:url(#SVGID_59_)}.st69{fill:url(#SVGID_60_)}.st70{fill:url(#SVGID_61_)}.st71{fill:url(#SVGID_62_)}.st72{fill:url(#SVGID_63_)}.st73{fill:url(#SVGID_64_)}.st74{fill:url(#SVGID_65_)}.st75{fill:url(#SVGID_66_)}.st76{fill:url(#SVGID_67_)}.st77{fill:url(#SVGID_68_)}.st78{fill:url(#SVGID_69_)}.st79{fill:url(#SVGID_70_)}.st80{fill:url(#SVGID_71_)}.st81{fill:url(#SVGID_72_)}.st82{fill:url(#SVGID_73_)}.st83{fill:url(#SVGID_74_)}.st84{fill:url(#SVGID_75_)}.st85{fill:url(#SVGID_76_)}.st86{fill:url(#SVGID_77_)}.st87{fill:url(#SVGID_78_)}.st88{fill:url(#SVGID_79_)}.st89{fill:url(#SVGID_80_)}.st90{fill:url(#SVGID_81_)}.st91{fill:url(#SVGID_82_)}.st92{fill:url(#SVGID_83_)}.st93{fill:url(#SVGID_84_)}.st94{fill:url(#SVGID_85_)}.st95{fill:url(#SVGID_86_)}.st96{fill:url(#SVGID_87_)}.st97{fill:url(#SVGID_88_)}.st98{fill:url(#SVGID_89_)}.st99{fill:url(#SVGID_90_)}.st100{fill:url(#SVGID_91_)}.st101{fill:url(#SVGID_92_)}.st102{fill:url(#SVGID_93_)}.st103{fill:url(#SVGID_94_)}.st104{fill:url(#SVGID_95_)}.st105{fill:url(#SVGID_96_)}.st106{fill:url(#SVGID_97_)}.st107{fill:url(#SVGID_98_)}.st108{fill:url(#SVGID_99_)}.st109{fill:url(#SVGID_100_)}.st110{fill:url(#SVGID_101_)}.st111{fill:#d3e0f2}.st112{fill:url(#SVGID_102_)}.st113{fill:url(#SVGID_103_)}.st114{fill:url(#SVGID_104_)}.st115{fill:url(#SVGID_105_)}.st116{fill:url(#SVGID_106_)}.st117{fill:url(#SVGID_107_)}.st118{fill:url(#SVGID_108_)}</style><title>header</title><g><g id="Layer_1_1_"><radialGradient id="SVGID_1_" cx="921.51" cy="-785.07" r="736.43" gradientTransform="matrix(1 0 0 -1 -357.13 -26.09)" gradientUnits="userSpaceOnUse"><stop offset=".69" style="stop-color:#98b4f7"/><stop offset=".79" style="stop-color:#769df5;stop-opacity:.69"/><stop offset="1" style="stop-color:#2b6af0;stop-opacity:0"/></radialGradient><path d="M541.1,234.8L695.5,324l-12.8,7.4h91.8l-12.8-7.5l316.4-183.1l-33.2-19.1L728.6,304.8l-139-80.3 c-4.9-2.8-6.6-9.1-3.7-14c0.9-1.6,2.2-2.8,3.7-3.7L841.2,61.3L808,42.2L541.1,196.6L315,66.1l-33.1,19.1l210.7,121.7 c4.9,2.8,6.6,9.1,3.7,14c-0.9,1.6-2.2,2.8-3.7,3.7l-67.6,39.1c-14.3,8.3-31.9,8.3-46.2,0L140,125.9L106.9,145l247.3,142.8 c4.7,2.7,6.3,8.7,3.6,13.3c-0.9,1.5-2.1,2.7-3.6,3.6L308,331.4h66.2L541.1,234.8z" class="st0"/><g class="st1"><path d="M258.3,305.6l72.5-41.8c5.8-3.4,13-3.4,18.8,0l43.3,25c5.8,3.3,12.9,3.3,18.7,0l219.4-126 c2.4-1.4,3.3-4.5,1.9-7c-0.4-0.8-1.1-1.4-1.9-1.9l-26.8-15.5c-2.4-1.4-3.3-4.5-1.9-7c0.4-0.8,1.1-1.4,1.9-1.9l6.7-3.9 c5.8-3.4,9.4-9.5,9.4-16.2V73.7c0-2.2,1.2-4.2,3.1-5.3l9.8-5.7" class="st2"/></g><g class="st3"><linearGradient id="SVGID_2_" x1="263.326" x2="299.486" y1="130.872" y2="205.072" gradientTransform="matrix(1 0 0 -1 0 334)" gradientUnits="userSpaceOnUse"><stop offset="0" style="stop-color:#2b6af0"/><stop offset="1" style="stop-color:#98b4f7"/></linearGradient><polygon points="259.6 113.9 259.6 200.7 300.3 224.2 300.3 137.3" class="st4"/><linearGradient id="SVGID_3_" x1="338.439" x2="293.059" y1="132.339" y2="215.249" gradientTransform="matrix(1 0 0 -1 0 334)" gradientUnits="userSpaceOnUse"><stop offset="0" style="stop-color:#2b6af0"/><stop offset="1" style="stop-color:#0a49ac"/></linearGradient><polygon points="340.9 113.9 340.9 200.7 300.3 224.2 300.3 137.3" class="st5"/><path d="M296.7,91.6l-35.5,20.5c-1.5,0.9-2,2.8-1.2,4.3c0.3,0.5,0.7,0.9,1.2,1.2l35.5,20.5c2.2,1.3,4.9,1.3,7.1,0 l35.5-20.5c1.5-0.9,2-2.8,1.2-4.3c-0.3-0.5-0.7-0.9-1.2-1.2l-35.5-20.5C301.6,90.4,298.9,90.4,296.7,91.6z" class="st6"/><linearGradient id="SVGID_4_" x1="466.36" x2="689.22" y1="-139.96" y2="-139.96" gradientTransform="matrix(1 0 0 -1 -357.13 -26.09)" gradientUnits="userSpaceOnUse"><stop offset="0" style="stop-color:#fff"/><stop offset="1" style="stop-color:#98b4f7"/></linearGradient><path d="M296.7,90.6l-35.5,20.5c-1.5,0.9-2,2.8-1.2,4.3c0.3,0.5,0.7,0.9,1.2,1.2l35.5,20.5c2.2,1.3,4.9,1.3,7.1,0 l35.5-20.5c1.5-0.9,2-2.8,1.2-4.3c-0.3-0.5-0.7-0.9-1.2-1.2l-35.5-20.5C301.6,89.4,298.9,89.4,296.7,90.6z" class="st7"/></g><g class="st8"><linearGradient id="SVGID_5_" x1="174.228" x2="217.108" y1="37.941" y2="125.921" gradientTransform="matrix(1 0 0 -1 0 334)" gradientUnits="userSpaceOnUse"><stop offset="0" style="stop-color:#2b6af0"/><stop offset="1" style="stop-color:#98b4f7"/></linearGradient><polygon points="169.9 190.2 169.9 293.2 218 321 218 218" class="st9"/><linearGradient id="SVGID_6_" x1="263.29" x2="209.48" y1="39.68" y2="137.99" gradientTransform="matrix(1 0 0 -1 0 334)" gradientUnits="userSpaceOnUse"><stop offset="0" style="stop-color:#2b6af0"/><stop offset="1" style="stop-color:#0a49ac"/></linearGradient><polygon points="266.2 190.2 266.2 293.2 218 321 218 218" class="st10"/><path d="M213.8,163.9l-42.1,24.3c-1.8,1-2.4,3.3-1.4,5.1c0.3,0.6,0.8,1,1.4,1.4l42.1,24.3c2.6,1.5,5.8,1.5,8.4,0 l42.1-24.3c1.8-1,2.4-3.3,1.4-5.1c-0.3-0.6-0.8-1-1.4-1.4l-42.1-24.3C219.6,162.3,216.4,162.3,213.8,163.9z" class="st6"/><linearGradient id="SVGID_7_" x1="348.63" x2="612.89" y1="-216.315" y2="-216.315" gradientTransform="matrix(1 0 0 -1 -357.13 -26.09)" gradientUnits="userSpaceOnUse"><stop offset="0" style="stop-color:#fff"/><stop offset="1" style="stop-color:#98b4f7"/></linearGradient><path d="M213.8,162.7L171.7,187c-1.8,1-2.4,3.3-1.4,5.1c0.3,0.6,0.8,1,1.4,1.4l42.1,24.3c2.6,1.5,5.8,1.5,8.4,0 l42.1-24.3c1.8-1,2.4-3.3,1.4-5.1c-0.3-0.6-0.8-1-1.4-1.4l-42.1-24.3C219.6,161.2,216.4,161.2,213.8,162.7z" class="st11"/></g><linearGradient id="SVGID_8_" x1="333.292" x2="357.042" y1="110.309" y2="159.049" gradientTransform="matrix(1 0 0 -1 0 334)" gradientUnits="userSpaceOnUse"><stop offset="0" style="stop-color:#2b6af0"/><stop offset="1" style="stop-color:#98b4f7"/></linearGradient><polygon points="319.7 159.6 319.7 214.7 368.7 242.9 368.7 187.9" class="st12"/><linearGradient id="SVGID_9_" x1="404.638" x2="375.518" y1="111.769" y2="164.979" gradientTransform="matrix(1 0 0 -1 0 334)" gradientUnits="userSpaceOnUse"><stop offset="0" style="stop-color:#2b6af0"/><stop offset="1" style="stop-color:#0a49ac"/></linearGradient><polygon points="417.7 159.6 417.7 214.7 368.7 242.9 368.7 187.9" class="st13"/><path d="M364.4,132.8l-42.8,24.7c-1.8,1.1-2.4,3.4-1.4,5.2c0.3,0.6,0.8,1.1,1.4,1.4l42.8,24.7c2.6,1.5,5.9,1.5,8.5,0 l42.8-24.7c1.8-1.1,2.4-3.4,1.4-5.2c-0.3-0.6-0.8-1.1-1.4-1.4L373,132.8C370.3,131.3,367.1,131.3,364.4,132.8z" class="st6"/><linearGradient id="SVGID_10_" x1="495.52" x2="764.19" y1="-185.723" y2="-185.723" gradientTransform="matrix(1 0 0 -1 -357.13 -26.09)" gradientUnits="userSpaceOnUse"><stop offset="0" style="stop-color:#fff"/><stop offset="1" style="stop-color:#98b4f7"/></linearGradient><path d="M364.4,131.6l-42.8,24.7c-1.8,1.1-2.4,3.4-1.4,5.2c0.3,0.6,0.8,1.1,1.4,1.4l42.8,24.7c2.6,1.5,5.9,1.5,8.5,0 l42.8-24.7c1.8-1.1,2.4-3.4,1.4-5.2c-0.3-0.6-0.8-1.1-1.4-1.4l-42.8-24.7C370.3,130.1,367.1,130.1,364.4,131.6z" class="st14"/><path d="M415.8,183.9L373,208.6c-2.6,1.5-5.9,1.5-8.5,0l-42.8-24.7c-1-0.6-1.7-1.6-1.9-2.8c-0.2,1.5,0.5,3,1.9,3.8 l42.8,24.7c2.6,1.5,5.9,1.5,8.5,0l42.8-24.7c1.3-0.8,2.1-2.3,1.9-3.8C417.5,182.3,416.8,183.3,415.8,183.9z" class="st15"/><linearGradient id="SVGID_11_" x1="337.375" x2="370.545" y1="173.568" y2="241.628" gradientTransform="matrix(1 0 0 -1 0 334)" gradientUnits="userSpaceOnUse"><stop offset="0" style="stop-color:#2b6af0"/><stop offset="1" style="stop-color:#98b4f7"/></linearGradient><polygon points="336.6 79.8 336.6 159.9 368.7 178.5 368.7 98.4" class="st16"/><linearGradient id="SVGID_12_" x1="401.23" x2="359.44" y1="174.81" y2="251.15" gradientTransform="matrix(1 0 0 -1 0 334)" gradientUnits="userSpaceOnUse"><stop offset="0" style="stop-color:#2b6af0"/><stop offset="1" style="stop-color:#0a49ac"/></linearGradient><polygon points="400.9 79.8 400.9 159.9 368.7 178.5 368.7 98.4" class="st17"/><path d="M365.9,62.2l-28.1,16.2c-1.2,0.7-1.6,2.2-0.9,3.4c0.2,0.4,0.5,0.7,0.9,0.9L365.9,99c1.7,1,3.9,1,5.6,0 l28.1-16.2c1.2-0.7,1.6-2.2,0.9-3.4c-0.2-0.4-0.5-0.7-0.9-0.9l-28.1-16.2C369.8,61.2,367.6,61.2,365.9,62.2z" class="st6"/><linearGradient id="SVGID_13_" x1="574.6" x2="751.02" y1="-105.868" y2="-105.868" gradientTransform="matrix(1 0 0 -1 -357.13 -26.09)" gradientUnits="userSpaceOnUse"><stop offset="0" style="stop-color:#fff"/><stop offset="1" style="stop-color:#98b4f7"/></linearGradient><path d="M365.9,61.4l-28.1,16.2c-1.2,0.7-1.6,2.2-0.9,3.4c0.2,0.4,0.5,0.7,0.9,0.9l28.1,16.2c1.7,1,3.9,1,5.6,0 l28.1-16.3c1.2-0.7,1.6-2.2,0.9-3.4c-0.2-0.4-0.5-0.7-0.9-0.9l-28.1-16.2C369.8,60.4,367.6,60.4,365.9,61.4z" class="st18"/><path d="M399.6,135.6l-28.1,16.2c-1.7,1-3.9,1-5.6,0l-28.1-16.2c-0.7-0.4-1.1-1.1-1.2-1.8c-0.1,1,0.4,2,1.2,2.5 l28.1,16.2c1.7,1,3.9,1,5.6,0l28.1-16.2c0.9-0.5,1.4-1.5,1.2-2.5C400.8,134.6,400.3,135.2,399.6,135.6z" class="st15"/><path d="M399.6,109.5l-28.1,16.2c-1.7,1-3.9,1-5.6,0l-28.1-16.2c-0.7-0.4-1.1-1.1-1.2-1.8c-0.1,1,0.4,2,1.2,2.5 l28.1,16.2c1.7,1,3.9,1,5.6,0l28.1-16.2c0.9-0.5,1.4-1.5,1.2-2.5C400.8,108.4,400.3,109.1,399.6,109.5z" class="st15"/><g class="st19"><linearGradient id="SVGID_14_" x1="612.395" x2="630.515" y1="221.878" y2="259.068" gradientTransform="matrix(1 0 0 -1 0 334)" gradientUnits="userSpaceOnUse"><stop offset="0" style="stop-color:#2b6af0"/><stop offset="1" style="stop-color:#98b4f7"/></linearGradient><polygon points="603.8 64.1 603.8 106.4 637.7 126 637.7 83.7" class="st20"/><linearGradient id="SVGID_15_" x1="663.446" x2="641.116" y1="222.917" y2="263.707" gradientTransform="matrix(1 0 0 -1 0 334)" gradientUnits="userSpaceOnUse"><stop offset="0" style="stop-color:#2b6af0"/><stop offset="1" style="stop-color:#0a49ac"/></linearGradient><polygon points="671.6 64.1 671.6 106.4 637.7 126 637.7 83.7" class="st21"/><path d="M634.7,45.5l-29.7,17.1c-1.3,0.7-1.7,2.3-1,3.6c0.2,0.4,0.6,0.7,1,1l29.7,17.1c1.8,1.1,4.1,1.1,5.9,0 l29.7-17.1c1.3-0.7,1.7-2.3,1-3.6c-0.2-0.4-0.6-0.7-1-1l-29.7-17.1C638.8,44.4,636.6,44.4,634.7,45.5z" class="st6"/><linearGradient id="SVGID_16_" x1="835.23" x2="1021.41" y1="-89.709" y2="-89.709" gradientTransform="matrix(1 0 0 -1 -357.13 -26.09)" gradientUnits="userSpaceOnUse"><stop offset="0" style="stop-color:#fff"/><stop offset="1" style="stop-color:#98b4f7"/></linearGradient><path d="M634.7,44.2l-29.7,17.1c-1.3,0.7-1.7,2.3-1,3.6c0.2,0.4,0.6,0.7,1,1L634.7,83c1.8,1.1,4.1,1.1,5.9,0 l29.7-17.1c1.3-0.7,1.7-2.3,1-3.6c-0.2-0.4-0.6-0.7-1-1l-29.7-17.1C638.8,43.2,636.6,43.2,634.7,44.2z" class="st22"/></g><linearGradient id="SVGID_17_" x1="423.264" x2="482.054" y1="-48.211" y2="120.719" gradientTransform="matrix(1 0 0 -1 0 334)" gradientUnits="userSpaceOnUse"><stop offset="0" style="stop-color:#2b6af0"/><stop offset="1" style="stop-color:#98b4f7"/></linearGradient><polygon points="498.7 233.4 431 194.3 431 331.4 498.7 331.4" class="st23"/><linearGradient id="SVGID_18_" x1="568.171" x2="497.511" y1="6.1" y2="135.19" gradientTransform="matrix(1 0 0 -1 0 334)" gradientUnits="userSpaceOnUse"><stop offset="0" style="stop-color:#2b6af0"/><stop offset="1" style="stop-color:#0a49ac"/></linearGradient><polygon points="566.4 194.3 498.7 233.4 498.7 331.4 566.4 331.4" class="st24"/><path d="M492.8,156.9l-59.2,34.2c-2.5,1.4-3.4,4.7-1.9,7.2c0.5,0.8,1.1,1.5,1.9,1.9l59.2,34.2c3.6,2.1,8.1,2.1,11.8,0 l59.2-34.2c2.5-1.4,3.4-4.7,1.9-7.2c-0.5-0.8-1.1-1.5-1.9-1.9l-59.2-34.2C500.9,154.8,496.4,154.8,492.8,156.9z" class="st6"/><path d="M492.8,155.5l-59.2,34.2c-2.5,1.4-3.4,4.7-1.9,7.2c0.5,0.8,1.1,1.5,1.9,1.9l59.2,34.2 c3.6,2.1,8.1,2.1,11.8,0l59.2-34.2c2.5-1.4,3.4-4.7,1.9-7.2c-0.5-0.8-1.1-1.5-1.9-1.9l-59.2-34.2 C500.9,153.4,496.4,153.4,492.8,155.5z" class="st25"/><path d="M563.8,232.4l-59.2,34.2c-3.6,2.1-8.1,2.1-11.8,0l-59.2-34.2c-1.4-0.8-2.4-2.2-2.6-3.9 c-0.3,2.1,0.7,4.2,2.6,5.2l59.2,34.2c3.6,2.1,8.1,2.1,11.8,0l59.2-34.2c1.8-1.1,2.9-3.1,2.6-5.2 C566.2,230.1,565.2,231.6,563.8,232.4z" class="st15"/><path d="M563.8,262.5l-59.2,34.2c-3.6,2.1-8.1,2.1-11.8,0l-59.2-34.2c-1.4-0.8-2.4-2.2-2.6-3.9 c-0.3,2.1,0.7,4.2,2.6,5.2l59.2,34.2c3.6,2.1,8.1,2.1,11.8,0l59.2-34.2c1.8-1.1,2.9-3.1,2.6-5.2 C566.2,260.3,565.2,261.7,563.8,262.5z" class="st15"/><path d="M563.8,292.7l-59.2,34.2c-3.6,2.1-8.1,2.1-11.8,0l-59.2-34.2c-1.4-0.8-2.4-2.2-2.6-3.9 c-0.3,2.1,0.7,4.2,2.6,5.2l59.2,34.2c3.6,2.1,8.1,2.1,11.8,0l59.2-34.2c1.8-1.1,2.9-3.1,2.6-5.2 C566.2,290.5,565.2,291.9,563.8,292.7z" class="st15"/><path d="M433.6,322.9c-1.4-0.8-2.4-2.2-2.6-3.9c-0.3,2.1,0.7,4.2,2.6,5.2l12.4,7.2h2.4L433.6,322.9z" class="st15"/><path d="M563.8,324.2c1.8-1.1,2.9-3.1,2.6-5.2c-0.2,1.6-1.2,3.1-2.6,3.9l-14.7,8.5h2.4L563.8,324.2z" class="st15"/><path d="M491.8,173l-30.5,17.6c-1.9,1.1-2.5,3.5-1.4,5.4c0.3,0.6,0.8,1.1,1.4,1.4l30.5,17.6c4.2,2.5,9.5,2.5,13.7,0 l30.5-17.6c1.9-1.1,2.5-3.5,1.4-5.4c-0.3-0.6-0.8-1.1-1.4-1.4L505.5,173C501.3,170.5,496.1,170.5,491.8,173z" class="st6"/><linearGradient id="SVGID_19_" x1="498.68" x2="498.68" y1="114.85" y2="334.78" gradientTransform="matrix(1 0 0 -1 0 334)" gradientUnits="userSpaceOnUse"><stop offset="0" style="stop-color:#fff"/><stop offset=".04" style="stop-color:#fff;stop-opacity:.88"/><stop offset=".1" style="stop-color:#fff;stop-opacity:.7"/><stop offset=".17" style="stop-color:#fff;stop-opacity:.53"/><stop offset=".24" style="stop-color:#fff;stop-opacity:.39"/><stop offset=".32" style="stop-color:#fff;stop-opacity:.27"/><stop offset=".4" style="stop-color:#fff;stop-opacity:.17"/><stop offset=".49" style="stop-color:#fff;stop-opacity:9.000000e-02"/><stop offset=".6" style="stop-color:#fff;stop-opacity:4.000000e-02"/><stop offset=".74" style="stop-color:#fff;stop-opacity:1.000000e-02"/><stop offset="1" style="stop-color:#fff;stop-opacity:0"/></linearGradient><rect width="78.7" height="193.9" x="459.3" class="st26"/><path d="M492.3,97L464,113.3c-1.7,1-2.3,3.2-1.3,5c0.3,0.6,0.8,1,1.3,1.3l28.3,16.3c3.9,2.3,8.8,2.3,12.7,0 l28.3-16.3c1.7-1,2.3-3.2,1.3-5c-0.3-0.6-0.8-1-1.3-1.3L505,97C501.1,94.7,496.3,94.7,492.3,97z" class="st15"/><path d="M492.3,75.8L464,92.1c-1.7,1-2.3,3.2-1.3,5c0.3,0.6,0.8,1,1.3,1.3l28.3,16.3c3.9,2.3,8.8,2.3,12.7,0 l28.3-16.3c1.7-1,2.3-3.2,1.3-5c-0.3-0.6-0.8-1-1.3-1.3L505,75.8C501.1,73.5,496.3,73.5,492.3,75.8z" class="st6"/><path d="M492.3,54.6l-28.3,16.3c-1.7,1-2.3,3.2-1.3,5c0.3,0.6,0.8,1,1.3,1.3l28.3,16.3c3.9,2.3,8.8,2.3,12.7,0 l28.3-16.3c1.7-1,2.3-3.2,1.3-5c-0.3-0.6-0.8-1-1.3-1.3L505,54.6C501.1,52.3,496.3,52.3,492.3,54.6z" class="st25"/><linearGradient id="SVGID_20_" x1="-184.832" x2="20.938" y1="-205.73" y2="-283.87" gradientTransform="matrix(-1 0 0 -1 201.6705 -24.3)" gradientUnits="userSpaceOnUse"><stop offset="0" style="stop-color:#fff"/><stop offset=".02" style="stop-color:#fff;stop-opacity:.95"/><stop offset=".14" style="stop-color:#fff;stop-opacity:.73"/><stop offset=".25" style="stop-color:#fff;stop-opacity:.54"/><stop offset=".37" style="stop-color:#fff;stop-opacity:.37"/><stop offset=".49" style="stop-color:#fff;stop-opacity:.24"/><stop offset=".61" style="stop-color:#fff;stop-opacity:.13"/><stop offset=".74" style="stop-color:#fff;stop-opacity:6.000000e-02"/><stop offset=".86" style="stop-color:#fff;stop-opacity:1.000000e-02"/><stop offset="1" style="stop-color:#fff;stop-opacity:0"/></linearGradient><path d="M321.5,184.3l0.2,112.8c0,3.3-2.7,5.9-5.9,5.9c-1,0-2-0.3-2.9-0.8l-57.4-33c-4.7-2.7-7.6-7.8-7.6-13.2 l-0.2-112.8c0-3.3,2.7-5.9,5.9-5.9c1,0,2,0.3,2.9,0.8l57.4,33C318.6,173.8,321.5,178.8,321.5,184.3z" class="st27"/><path d="M247.5,143.2l0.2,112.8c0,5.5,2.9,10.5,7.7,13.2l57.4,33c2.8,1.6,6.5,0.6,8.1-2.2c0.5-0.9,0.8-1.9,0.8-2.9 l-0.2-112.8c0-5.5-2.9-10.5-7.7-13.2l-57.4-33c-2.8-1.6-6.5-0.7-8.1,2.1C247.8,141.1,247.5,142.1,247.5,143.2z M250.5,144.2 c0-1.2,1-2.2,2.2-2.2c0.4,0,0.8,0.1,1.1,0.3l13.5,7.8c1.3,0.7,2.3,1.8,2.8,3.2l1.9,4.3c0.7,1.6,1.9,2.9,3.4,3.8l17.7,10.2 c1.4,0.8,3.2,0.3,4-1.1c0,0,0,0,0-0.1c0.7-1.3,2.4-1.8,3.7-1c0,0,0,0,0,0l10.2,5.9c3.2,1.9,5.3,5.3,5.3,9.1l0.2,112.9 c0,1.2-1,2.2-2.2,2.2c-0.4,0-0.8-0.1-1.1-0.3L256,266.1c-3.2-1.9-5.3-5.3-5.3-9.1L250.5,144.2z" class="st25"/><linearGradient id="SVGID_21_" x1="-115.633" x2="-77.133" y1="-252.505" y2="-168.505" gradientTransform="matrix(-1 0 0 -1 201.6705 -24.3)" gradientUnits="userSpaceOnUse"><stop offset="0" style="stop-color:#fff"/><stop offset="1" style="stop-color:#98b4f7"/></linearGradient><path d="M321.5,184.3c0-5.5-2.9-10.5-7.7-13.2l-57.4-33c-1.2-0.7-2.6-0.9-3.9-0.7c1.8-2.2,5-2.8,7.5-1.4l57.4,33 c4.7,2.7,7.7,7.8,7.7,13.2l0.2,112.8c0,2.9-2.1,5.4-4.9,5.8c0.9-1.1,1.4-2.4,1.3-3.8L321.5,184.3z" class="st28"/><path d="M306.1,195.2l0.1,48.5c0,1.6-1.3,2.8-2.8,2.8c-0.5,0-1-0.1-1.4-0.4l-36.5-21c-2.8-1.6-4.5-4.6-4.5-7.8 l-0.1-48.4c0-1.6,1.3-2.8,2.8-2.8c0.5,0,1,0.1,1.4,0.4l36.5,21C304.4,189,306.1,192,306.1,195.2z" class="st6"/><ellipse cx="282.7" cy="222.4" class="st29" rx="6" ry="8.6" transform="matrix(0.8797 -0.4755 0.4755 0.8797 -71.7612 161.1879)"/><polyline points="288.1 218.8 282.3 223.9 280.2 220" class="st30"/><polygon points="298.1 197 298.1 201.4 267.4 183.5 267.4 179.2" class="st15"/><polygon points="267.4 185.4 267.4 189.8 280.3 197.2 280.3 192.8" class="st15"/><linearGradient id="SVGID_22_" x1="81.366" x2="156.116" y1="-90.308" y2="42.032" gradientTransform="matrix(1 0 0 -1 0 334)" gradientUnits="userSpaceOnUse"><stop offset="0" style="stop-color:#2b6af0"/><stop offset="1" style="stop-color:#98b4f7"/></linearGradient><polygon points="196.7 315.1 108.8 264.4 108.8 331.4 196.7 331.4" class="st31"/><polygon points="284.5 264.4 196.7 315.1 196.7 331.4 284.5 331.4" class="st25"/><path d="M189.1,215.7l-76.8,44.3c-3.3,1.9-4.4,6-2.5,9.3c0.6,1,1.5,1.9,2.5,2.5l76.8,44.3c4.7,2.7,10.6,2.7,15.3,0 l76.8-44.3c3.3-1.9,4.4-6,2.5-9.3c-0.6-1-1.5-1.9-2.5-2.5l-76.8-44.3C199.6,213,193.8,213,189.1,215.7z" class="st6"/><linearGradient id="SVGID_23_" x1="459.51" x2="640.34" y1="-290.076" y2="-290.076" gradientTransform="matrix(1 0 0 -1 -357.13 -26.09)" gradientUnits="userSpaceOnUse"><stop offset="0" style="stop-color:#fff"/><stop offset="1" style="stop-color:#98b4f7"/></linearGradient><path d="M189.1,213.7l-76.8,44.3c-3.3,1.9-4.4,6-2.5,9.3c0.6,1,1.5,1.9,2.5,2.5l76.8,44.3c4.7,2.7,10.6,2.7,15.3,0 l76.8-44.3c3.3-1.9,4.4-6,2.5-9.3c-0.6-1-1.5-1.9-2.5-2.5l-76.8-44.3C199.6,211,193.8,211,189.1,213.7z" class="st32"/><polygon points="966.3 277.1 872.3 331.4 966.3 331.4" class="st25"/><linearGradient id="SVGID_24_" x1="528.239" x2="665.559" y1="-243.119" y2="37.23" gradientTransform="matrix(1 0 0 -1 0 334)" gradientUnits="userSpaceOnUse"><stop offset="0" style="stop-color:#2b6af0"/><stop offset="1" style="stop-color:#98b4f7"/></linearGradient><polygon points="614.9 277.1 614.9 331.4 708.9 331.4" class="st33"/><path d="M959.5,286.1c6.5-3.8,8.7-12.1,5-18.6c-1.2-2.1-2.9-3.8-5-5l-153.6-88.6c-9.5-5.5-21.1-5.5-30.6,0 l-153.6,88.6c-6.5,3.8-8.7,12.1-5,18.6c1.2,2.1,2.9,3.8,5,5l78.3,45.2h181.1L959.5,286.1z" class="st6"/><path d="M751.5,331.3l150.6-87c3.3-1.9,4.5-6.1,2.6-9.4c-0.6-1.1-1.5-1.9-2.6-2.6l-89.4-51.6 c-6.1-3.5-13.5-3.5-19.6,0L643,267.4c-3.3,2-4.4,6.3-2.5,9.6c0.6,1,1.5,1.9,2.5,2.5l89.8,51.9l0.1,0.1h18.5L751.5,331.3z" class="st15"/><linearGradient id="SVGID_25_" x1="940.85" x2="1252.27" y1="-270.16" y2="-270.16" gradientTransform="matrix(1 0 0 -1 -357.13 -26.09)" gradientUnits="userSpaceOnUse"><stop offset="0" style="stop-color:#fff"/><stop offset="1" style="stop-color:#98b4f7"/></linearGradient><path d="M783.4,168.9l-150.1,86.7c-3.3,2-4.4,6.3-2.5,9.6c0.6,1,1.5,1.9,2.5,2.5l89.8,51.9c5.8,3.3,12.9,3.3,18.7,0 l150.6-87c3.3-1.9,4.5-6.1,2.6-9.4c-0.6-1.1-1.5-1.9-2.6-2.6L803,168.8C796.9,165.3,789.5,165.3,783.4,168.9z" class="st34"/><linearGradient id="SVGID_26_" x1="1120.014" x2="1120.014" y1="-338.48" y2="-131.22" gradientTransform="matrix(1 0 0 -1 -357.13 -26.09)" gradientUnits="userSpaceOnUse"><stop offset="0" style="stop-color:#fff"/><stop offset="1" style="stop-color:#98b4f7"/></linearGradient><path d="M783.4,165.4L633.3,252c-3.3,2-4.4,6.3-2.5,9.6c0.6,1,1.5,1.9,2.5,2.5l89.8,51.9c5.8,3.3,12.9,3.3,18.7,0 l150.6-87c3.3-1.9,4.5-6.1,2.6-9.4c-0.6-1.1-1.5-1.9-2.6-2.6L803,165.4C796.9,161.9,789.5,161.9,783.4,165.4z" class="st35"/><linearGradient id="SVGID_27_" x1="887.88" x2="1243.85" y1="-94.471" y2="-229.651" gradientTransform="matrix(1 0 0 -1 -357.13 -26.09)" gradientUnits="userSpaceOnUse"><stop offset="0" style="stop-color:#fff"/><stop offset=".02" style="stop-color:#fff;stop-opacity:.95"/><stop offset=".14" style="stop-color:#fff;stop-opacity:.73"/><stop offset=".25" style="stop-color:#fff;stop-opacity:.54"/><stop offset=".37" style="stop-color:#fff;stop-opacity:.37"/><stop offset=".49" style="stop-color:#fff;stop-opacity:.24"/><stop offset=".61" style="stop-color:#fff;stop-opacity:.13"/><stop offset=".74" style="stop-color:#fff;stop-opacity:6.000000e-02"/><stop offset=".86" style="stop-color:#fff;stop-opacity:1.000000e-02"/><stop offset="1" style="stop-color:#fff;stop-opacity:0"/></linearGradient><path d="M622.9,127.7v112.8c0,3.3,2.7,5.9,5.9,5.9c1,0,2.1-0.3,3-0.8l153.8-88.8c4.7-2.7,7.6-7.8,7.6-13.2V30.9 c0-3.3-2.7-5.9-5.9-5.9c-1,0-2.1,0.3-3,0.8l-153.8,88.8C625.8,117.2,622.9,122.3,622.9,127.7z" class="st36"/><path d="M622.9,240.6V127.7c0-5.5,2.9-10.5,7.6-13.2l153.8-88.8c1.5-0.9,3.3-1,4.9-0.5c-1.8-1.5-3.9-1.7-6.3-0.3 l-153.8,88.8c-4.7,2.7-7.6,7.8-7.6,13.2v112.8c0,2.7,1.2,4.5,3.4,5.3C623.6,243.9,622.9,242.3,622.9,240.6z" class="st6"/><path d="M653.1,257.9l1.1,0.6c1.3,0.7,2.8,0.7,4.1,0l4.6-2.7c0.5-0.3,0.7-1,0.4-1.5c-0.1-0.2-0.2-0.3-0.4-0.4 l-1.1-0.6c-1.3-0.7-2.8-0.7-4.1,0l-4.6,2.7c-0.5,0.3-0.7,1-0.4,1.5C652.8,257.7,652.9,257.8,653.1,257.9z" class="st15"/><path d="M663.4,252l1.1,0.6c1.3,0.7,2.8,0.7,4.1,0l4.6-2.7c0.5-0.3,0.7-1,0.4-1.5c-0.1-0.2-0.2-0.3-0.4-0.4l-1.1-0.6 c-1.3-0.7-2.8-0.7-4.1,0l-4.6,2.7c-0.5,0.3-0.7,1-0.4,1.5C663.1,251.8,663.2,251.9,663.4,252z" class="st15"/><path d="M673.6,246.1l1.1,0.6c1.3,0.7,2.8,0.7,4.1,0l4.6-2.7c0.5-0.3,0.7-1,0.4-1.5c-0.1-0.2-0.2-0.3-0.4-0.4 l-1.1-0.6c-1.3-0.7-2.8-0.7-4.1,0l-4.6,2.7c-0.5,0.3-0.7,1-0.4,1.5C673.3,245.9,673.4,246,673.6,246.1z" class="st15"/><path d="M683.8,240.2l1.1,0.6c1.3,0.7,2.8,0.7,4.1,0l4.6-2.7c0.5-0.3,0.7-1,0.4-1.5c-0.1-0.2-0.2-0.3-0.4-0.4 l-1.1-0.6c-1.3-0.7-2.8-0.7-4.1,0l-4.6,2.7c-0.5,0.3-0.7,1-0.4,1.5C683.5,240,683.7,240.1,683.8,240.2z" class="st15"/><path d="M694.1,234.3l1.1,0.6c1.3,0.7,2.8,0.7,4.1,0l4.6-2.7c0.5-0.3,0.7-1,0.4-1.5c-0.1-0.2-0.2-0.3-0.4-0.4 l-1.1-0.6c-1.3-0.7-2.8-0.7-4.1,0l-4.6,2.7c-0.5,0.3-0.7,1-0.4,1.5C693.8,234.1,693.9,234.2,694.1,234.3z" class="st15"/><path d="M704.3,228.4l1.1,0.6c1.3,0.7,2.8,0.7,4.1,0l4.6-2.7c0.5-0.3,0.7-1,0.4-1.5c-0.1-0.2-0.2-0.3-0.4-0.4 l-1.1-0.6c-1.3-0.7-2.8-0.7-4.1,0l-4.6,2.7c-0.5,0.3-0.7,1-0.4,1.5C704,228.2,704.2,228.3,704.3,228.4z" class="st15"/><path d="M714.6,222.5l1.1,0.6c1.3,0.7,2.8,0.7,4.1,0l4.6-2.7c0.5-0.3,0.7-1,0.4-1.5c-0.1-0.2-0.2-0.3-0.4-0.4 l-1.1-0.6c-1.3-0.7-2.8-0.7-4.1,0l-4.6,2.7c-0.5,0.3-0.7,1-0.4,1.5C714.3,222.3,714.4,222.4,714.6,222.5z" class="st15"/><path d="M724.8,216.6l1.1,0.6c1.3,0.7,2.8,0.7,4.1,0l4.6-2.7c0.5-0.3,0.7-1,0.4-1.5c-0.1-0.2-0.2-0.3-0.4-0.4 l-1.1-0.6c-1.3-0.7-2.8-0.7-4.1,0l-4.6,2.7c-0.5,0.3-0.7,1-0.4,1.5C724.5,216.4,724.6,216.6,724.8,216.6z" class="st15"/><path d="M735,210.8l1.1,0.6c1.3,0.7,2.8,0.7,4.1,0l4.6-2.7c0.5-0.3,0.7-1,0.4-1.5c-0.1-0.2-0.2-0.3-0.4-0.4l-1.1-0.6 c-1.3-0.7-2.8-0.7-4.1,0l-4.6,2.7c-0.5,0.3-0.7,1-0.4,1.5C734.7,210.5,734.9,210.7,735,210.8z" class="st15"/><path d="M745.3,204.9l1.1,0.6c1.3,0.7,2.8,0.7,4.1,0l4.6-2.7c0.5-0.3,0.7-1,0.4-1.5c-0.1-0.2-0.2-0.3-0.4-0.4 l-1.1-0.6c-1.3-0.7-2.8-0.7-4.1,0l-4.6,2.7c-0.5,0.3-0.7,1-0.4,1.5C745,204.7,745.1,204.8,745.3,204.9z" class="st15"/><path d="M755.5,199l1.1,0.6c1.3,0.7,2.8,0.7,4.1,0l4.6-2.7c0.5-0.3,0.7-1,0.4-1.5c-0.1-0.2-0.2-0.3-0.4-0.4l-1.1-0.6 c-1.3-0.7-2.8-0.7-4.1,0l-4.6,2.7c-0.5,0.3-0.7,1-0.4,1.5C755.2,198.7,755.4,198.9,755.5,199z" class="st15"/><path d="M765.7,193.1l1.1,0.6c1.3,0.7,2.8,0.7,4.1,0l4.6-2.7c0.5-0.3,0.7-1,0.4-1.5c-0.1-0.2-0.2-0.3-0.4-0.4 l-1.1-0.6c-1.3-0.7-2.8-0.7-4.1,0l-4.6,2.7c-0.5,0.3-0.7,1-0.4,1.5C765.4,192.9,765.6,193,765.7,193.1z" class="st15"/><path d="M776,187.2l1.1,0.6c1.3,0.7,2.8,0.7,4.1,0l4.6-2.7c0.5-0.3,0.7-1,0.4-1.5c-0.1-0.2-0.2-0.3-0.4-0.4l-1.1-0.6 c-1.3-0.7-2.8-0.7-4.1,0l-4.6,2.7c-0.5,0.3-0.7,1-0.4,1.5C775.7,187,775.8,187.1,776,187.2z" class="st15"/><path d="M786.3,181.3l1.1,0.6c1.3,0.7,2.8,0.7,4.1,0l4.6-2.7c0.5-0.3,0.7-1,0.4-1.5c-0.1-0.2-0.2-0.3-0.4-0.4 l-1.1-0.6c-1.3-0.7-2.8-0.7-4.1,0l-4.6,2.7c-0.5,0.3-0.7,1-0.4,1.5C786,181.1,786.1,181.2,786.3,181.3z" class="st15"/><path d="M659.5,261.6l4.6,2.7c1.3,0.7,2.8,0.7,4.1,0l4.6-2.7c0.5-0.3,0.7-1,0.4-1.5c-0.1-0.2-0.2-0.3-0.4-0.4 l-4.6-2.7c-1.3-0.7-2.8-0.7-4.1,0l-4.6,2.7c-0.5,0.3-0.7,1-0.4,1.5C659.2,261.4,659.4,261.5,659.5,261.6z" class="st15"/><path d="M669.7,255.7l4.6,2.7c1.3,0.7,2.8,0.7,4.1,0l4.6-2.7c0.5-0.3,0.7-1,0.4-1.5c-0.1-0.2-0.2-0.3-0.4-0.4 l-4.6-2.7c-1.3-0.7-2.8-0.7-4.1,0l-4.6,2.7c-0.5,0.3-0.7,1-0.4,1.5C669.4,255.5,669.6,255.6,669.7,255.7z" class="st15"/><path d="M680,249.8l4.6,2.7c1.3,0.7,2.8,0.7,4.1,0l4.6-2.7c0.5-0.3,0.7-1,0.4-1.5c-0.1-0.2-0.2-0.3-0.4-0.4l-4.6-2.7 c-1.3-0.7-2.8-0.7-4.1,0l-4.6,2.7c-0.5,0.3-0.7,1-0.4,1.5C679.7,249.6,679.8,249.7,680,249.8z" class="st15"/><path d="M690.3,243.9l4.6,2.7c1.3,0.7,2.8,0.7,4.1,0l4.6-2.7c0.5-0.3,0.7-1,0.4-1.5c-0.1-0.2-0.2-0.3-0.4-0.4 l-4.6-2.7c-1.3-0.7-2.8-0.7-4.1,0l-4.6,2.7c-0.5,0.3-0.7,1-0.4,1.5C690,243.7,690.1,243.8,690.3,243.9z" class="st15"/><path d="M700.5,238l4.6,2.7c1.3,0.7,2.8,0.7,4.1,0l4.6-2.7c0.5-0.3,0.7-1,0.4-1.5c-0.1-0.2-0.2-0.3-0.4-0.4l-4.6-2.7 c-1.3-0.7-2.8-0.7-4.1,0l-4.6,2.7c-0.5,0.3-0.7,1-0.4,1.5C700.2,237.8,700.3,237.9,700.5,238z" class="st15"/><path d="M710.7,232.1l4.6,2.7c1.3,0.7,2.8,0.7,4.1,0l4.6-2.7c0.5-0.3,0.7-1,0.4-1.5c-0.1-0.2-0.2-0.3-0.4-0.4 l-4.6-2.7c-1.3-0.7-2.8-0.7-4.1,0l-4.6,2.7c-0.5,0.3-0.7,1-0.4,1.5C710.4,231.9,710.6,232.1,710.7,232.1z" class="st15"/><path d="M721,226.3l4.6,2.7c1.3,0.7,2.8,0.7,4.1,0l4.6-2.7c0.5-0.3,0.7-1,0.4-1.5c-0.1-0.2-0.2-0.3-0.4-0.4l-4.6-2.7 c-1.3-0.7-2.8-0.7-4.1,0l-4.6,2.7c-0.5,0.3-0.7,1-0.4,1.5C720.7,226,720.8,226.2,721,226.3z" class="st15"/><path d="M731.2,220.4l4.6,2.7c1.3,0.7,2.8,0.7,4.1,0l4.6-2.7c0.5-0.3,0.7-1,0.4-1.5c-0.1-0.2-0.2-0.3-0.4-0.4 l-4.6-2.7c-1.3-0.7-2.8-0.7-4.1,0l-4.6,2.7c-0.5,0.3-0.7,1-0.4,1.5C730.9,220.1,731,220.3,731.2,220.4z" class="st15"/><path d="M741.5,214.5l4.6,2.7c1.3,0.7,2.8,0.7,4.1,0l4.6-2.7c0.5-0.3,0.7-1,0.4-1.5c-0.1-0.2-0.2-0.3-0.4-0.4 l-4.6-2.7c-1.3-0.7-2.8-0.7-4.1,0l-4.6,2.7c-0.5,0.3-0.7,1-0.4,1.5C741.2,214.2,741.3,214.4,741.5,214.5z" class="st15"/><path d="M751.7,208.6l4.6,2.7c1.3,0.7,2.8,0.7,4.1,0l4.6-2.7c0.5-0.3,0.7-1,0.4-1.5c-0.1-0.2-0.2-0.3-0.4-0.4 l-4.6-2.7c-1.3-0.7-2.8-0.7-4.1,0l-4.6,2.7c-0.5,0.3-0.7,1-0.4,1.5C751.4,208.4,751.6,208.5,751.7,208.6z" class="st15"/><path d="M761.9,202.7l4.6,2.7c1.3,0.7,2.8,0.7,4.1,0l4.6-2.7c0.5-0.3,0.7-1,0.4-1.5c-0.1-0.2-0.2-0.3-0.4-0.4 l-4.6-2.7c-1.3-0.7-2.8-0.7-4.1,0l-4.6,2.7c-0.5,0.3-0.7,1-0.4,1.5C761.6,202.5,761.8,202.6,761.9,202.7z" class="st15"/><path d="M772.2,196.8l4.6,2.7c1.3,0.7,2.8,0.7,4.1,0l4.6-2.7c0.5-0.3,0.7-1,0.4-1.5c-0.1-0.2-0.2-0.3-0.4-0.4 l-4.6-2.7c-1.3-0.7-2.8-0.7-4.1,0l-4.6,2.7c-0.5,0.3-0.7,0.9-0.5,1.5C771.8,196.6,772,196.7,772.2,196.8z" class="st15"/><path d="M782.5,190.9l4.6,2.7c1.3,0.7,2.8,0.7,4.1,0L806,185c0.5-0.3,0.7-1,0.4-1.5c-0.1-0.2-0.2-0.3-0.4-0.4 l-4.6-2.7c-1.3-0.7-2.8-0.7-4.1,0l-14.8,8.5c-0.5,0.3-0.7,1-0.5,1.5C782.2,190.6,782.3,190.7,782.5,190.9z" class="st15"/><path d="M669.8,267.6l4.6,2.7c1.3,0.7,2.8,0.7,4.1,0l8.1-4.6c0.5-0.3,0.7-1,0.4-1.5c-0.1-0.2-0.2-0.3-0.4-0.4 L682,261c-1.3-0.7-2.8-0.7-4.1,0l-8.1,4.6c-0.5,0.3-0.7,1-0.4,1.5C669.5,267.3,669.7,267.5,669.8,267.6z" class="st15"/><path d="M683.5,259.7l4.6,2.7c1.3,0.7,2.8,0.7,4.1,0l4.6-2.7c0.5-0.3,0.7-1,0.4-1.5c-0.1-0.2-0.2-0.3-0.4-0.4 l-4.6-2.7c-1.3-0.7-2.8-0.7-4.1,0l-4.6,2.7c-0.5,0.3-0.7,1-0.4,1.5C683.2,259.5,683.3,259.6,683.5,259.7z" class="st15"/><path d="M693.7,253.8l4.6,2.7c1.3,0.7,2.8,0.7,4.1,0l4.6-2.7c0.5-0.3,0.7-1,0.4-1.5c-0.1-0.2-0.2-0.3-0.4-0.4 l-4.6-2.7c-1.3-0.7-2.8-0.7-4.1,0l-4.6,2.7c-0.5,0.3-0.7,1-0.4,1.5C693.4,253.6,693.6,253.7,693.7,253.8z" class="st15"/><path d="M704,247.9l4.6,2.7c1.3,0.7,2.8,0.7,4.1,0l4.6-2.7c0.5-0.3,0.7-1,0.4-1.5c-0.1-0.2-0.2-0.3-0.4-0.4l-4.6-2.6 c-1.3-0.7-2.8-0.7-4.1,0L704,246c-0.5,0.3-0.7,1-0.4,1.5C703.7,247.7,703.8,247.8,704,247.9z" class="st15"/><path d="M714.2,242l4.6,2.7c1.3,0.7,2.8,0.7,4.1,0l4.6-2.7c0.5-0.3,0.7-1,0.4-1.5c-0.1-0.2-0.2-0.3-0.4-0.4l-4.6-2.7 c-1.3-0.7-2.8-0.7-4.1,0l-4.6,2.7c-0.5,0.3-0.7,1-0.4,1.5C713.9,241.8,714.1,241.9,714.2,242z" class="st15"/><path d="M724.5,236.1l4.6,2.7c1.3,0.7,2.8,0.7,4.1,0l4.6-2.7c0.5-0.3,0.7-1,0.4-1.5c-0.1-0.2-0.2-0.3-0.4-0.4 l-4.6-2.7c-1.3-0.7-2.8-0.7-4.1,0l-4.6,2.7c-0.5,0.3-0.7,1-0.4,1.5C724.2,235.9,724.3,236,724.5,236.1z" class="st15"/><path d="M734.7,230.2l4.6,2.7c1.3,0.7,2.8,0.7,4.1,0l4.6-2.7c0.5-0.3,0.7-1,0.4-1.5c-0.1-0.2-0.2-0.3-0.4-0.4 l-4.6-2.7c-1.3-0.7-2.8-0.7-4.1,0l-4.6,2.7c-0.5,0.3-0.7,1-0.4,1.5C734.4,230,734.6,230.1,734.7,230.2z" class="st15"/><path d="M744.9,224.4l4.6,2.7c1.3,0.7,2.8,0.7,4.1,0l4.6-2.7c0.5-0.3,0.7-1,0.4-1.5c-0.1-0.2-0.2-0.3-0.4-0.4 l-4.6-2.7c-1.3-0.7-2.8-0.7-4.1,0l-4.6,2.7c-0.5,0.3-0.7,1-0.4,1.5C744.6,224.1,744.8,224.3,744.9,224.4z" class="st15"/><path d="M755.2,218.5l4.6,2.7c1.3,0.7,2.8,0.7,4.1,0l4.6-2.7c0.5-0.3,0.7-1,0.4-1.5c-0.1-0.2-0.2-0.3-0.4-0.4 l-4.6-2.7c-1.3-0.7-2.8-0.7-4.1,0l-4.6,2.7c-0.5,0.3-0.7,1-0.4,1.5C754.9,218.2,755,218.4,755.2,218.5z" class="st15"/><path d="M765.4,212.6l4.6,2.7c1.3,0.7,2.8,0.7,4.1,0l4.6-2.7c0.5-0.3,0.7-1,0.4-1.5c-0.1-0.2-0.2-0.3-0.4-0.4 l-4.6-2.7c-1.3-0.7-2.8-0.7-4.1,0l-4.6,2.7c-0.5,0.3-0.7,1-0.4,1.5C765.1,212.3,765.3,212.5,765.4,212.6z" class="st15"/><path d="M775.7,206.7l4.6,2.7c1.3,0.7,2.8,0.7,4.1,0l4.6-2.7c0.5-0.3,0.7-1,0.4-1.5c-0.1-0.2-0.2-0.3-0.4-0.4 l-4.6-2.7c-1.3-0.7-2.8-0.7-4.1,0l-4.6,2.7c-0.5,0.3-0.7,1-0.4,1.5C775.4,206.4,775.5,206.6,775.7,206.7z" class="st15"/><path d="M785.9,200.8l4.6,2.7c1.3,0.7,2.8,0.7,4.1,0l4.6-2.7c0.5-0.3,0.7-1,0.4-1.5c-0.1-0.2-0.2-0.3-0.4-0.4 l-4.6-2.7c-1.3-0.7-2.8-0.7-4.1,0l-4.6,2.7c-0.5,0.3-0.7,1-0.4,1.5C785.6,200.6,785.7,200.7,785.9,200.8z" class="st15"/><path d="M796.3,194.8l4.6,2.7c1.3,0.7,2.8,0.7,4.1,0l11.3-6.5c0.5-0.3,0.7-1,0.4-1.5c-0.1-0.2-0.2-0.3-0.4-0.4 l-4.6-2.7c-1.3-0.7-2.8-0.7-4.1,0l-11.3,6.5c-0.5,0.3-0.7,1-0.4,1.5C795.9,194.6,796.1,194.7,796.3,194.8z" class="st15"/><path d="M680.2,273.6l4.6,2.7c1.3,0.7,2.8,0.7,4.1,0l8.1-4.6c0.5-0.3,0.7-1,0.4-1.5c-0.1-0.2-0.2-0.3-0.4-0.4 l-4.6-2.7c-1.3-0.7-2.8-0.7-4.1,0l-8.1,4.6c-0.5,0.3-0.7,1-0.4,1.5C679.9,273.4,680,273.5,680.2,273.6z" class="st15"/><path d="M693.9,265.7l4.6,2.7c1.3,0.7,2.8,0.7,4.1,0l4.6-2.7c0.5-0.3,0.7-1,0.4-1.5c-0.1-0.2-0.2-0.3-0.4-0.4 l-4.6-2.7c-1.3-0.7-2.8-0.7-4.1,0l-4.6,2.7c-0.5,0.3-0.7,1-0.4,1.5C693.6,265.5,693.7,265.6,693.9,265.7z" class="st15"/><path d="M704.1,259.8l4.6,2.7c1.3,0.7,2.8,0.7,4.1,0l4.6-2.7c0.5-0.3,0.7-1,0.4-1.5c-0.1-0.2-0.2-0.3-0.4-0.4 l-4.6-2.7c-1.3-0.7-2.8-0.7-4.1,0l-4.6,2.6c-0.5,0.3-0.7,1-0.4,1.5C703.8,259.6,704,259.7,704.1,259.8z" class="st15"/><path d="M714.4,253.9l4.6,2.7c1.3,0.7,2.8,0.7,4.1,0l4.6-2.7c0.5-0.3,0.7-1,0.4-1.5c-0.1-0.2-0.2-0.3-0.4-0.4 l-4.6-2.7c-1.3-0.7-2.8-0.7-4.1,0l-4.6,2.7c-0.5,0.3-0.7,1-0.4,1.5C714,253.7,714.2,253.8,714.4,253.9z" class="st15"/><path d="M724.6,248.1l4.6,2.7c1.3,0.7,2.8,0.7,4.1,0l4.6-2.7c0.5-0.3,0.7-1,0.4-1.5c-0.1-0.2-0.2-0.3-0.4-0.4 l-4.6-2.7c-1.3-0.7-2.8-0.7-4.1,0l-4.6,2.7c-0.5,0.3-0.7,1-0.4,1.5C724.3,247.8,724.4,248,724.6,248.1z" class="st15"/><path d="M734.9,242.2l4.6,2.7c1.3,0.7,2.8,0.7,4.1,0l4.6-2.7c0.5-0.3,0.7-1,0.4-1.5c-0.1-0.2-0.2-0.3-0.4-0.4 l-4.6-2.7c-1.3-0.7-2.8-0.7-4.1,0l-4.6,2.7c-0.5,0.3-0.7,1-0.4,1.5C734.6,241.9,734.7,242.1,734.9,242.2z" class="st15"/><path d="M745.1,236.3l4.6,2.7c1.3,0.7,2.8,0.7,4.1,0l4.6-2.7c0.5-0.3,0.7-1,0.4-1.5c-0.1-0.2-0.2-0.3-0.4-0.4 l-4.6-2.7c-1.3-0.7-2.8-0.7-4.1,0l-4.6,2.7c-0.5,0.3-0.7,1-0.5,1.5C744.8,236,744.9,236.2,745.1,236.3z" class="st15"/><path d="M755.3,230.4l4.6,2.7c1.3,0.7,2.8,0.7,4.1,0l4.6-2.7c0.5-0.3,0.7-1,0.4-1.5c-0.1-0.2-0.2-0.3-0.4-0.4 l-4.6-2.7c-1.3-0.7-2.8-0.7-4.1,0l-4.6,2.7c-0.5,0.3-0.7,1-0.4,1.5C755,230.1,755.2,230.3,755.3,230.4z" class="st15"/><path d="M765.6,224.5l4.6,2.7c1.3,0.7,2.8,0.7,4.1,0l4.6-2.7c0.5-0.3,0.7-1,0.4-1.5c-0.1-0.2-0.2-0.3-0.4-0.4 l-4.6-2.7c-1.3-0.7-2.8-0.7-4.1,0l-4.6,2.7c-0.6,0.3-0.8,0.9-0.6,1.4C765.1,224.2,765.3,224.4,765.6,224.5z" class="st15"/><path d="M775.8,218.6l4.6,2.7c1.3,0.7,2.8,0.7,4.1,0l4.6-2.7c0.5-0.3,0.7-1,0.4-1.5c-0.1-0.2-0.2-0.3-0.4-0.4 l-4.6-2.7c-1.3-0.7-2.8-0.7-4.1,0l-4.6,2.7c-0.5,0.3-0.7,1-0.4,1.5C775.5,218.4,775.7,218.5,775.8,218.6z" class="st15"/><path d="M786.1,212.7l4.6,2.7c1.3,0.7,2.8,0.7,4.1,0l4.6-2.7c0.5-0.3,0.7-1,0.4-1.5c-0.1-0.2-0.2-0.3-0.4-0.4 l-4.6-2.7c-1.3-0.7-2.8-0.7-4.1,0l-4.6,2.7c-0.5,0.3-0.7,1-0.4,1.5C785.8,212.5,785.9,212.6,786.1,212.7z" class="st15"/><path d="M796.3,206.8l4.6,2.7c1.3,0.7,2.8,0.7,4.1,0l4.6-2.7c0.5-0.3,0.7-1,0.4-1.5c-0.1-0.2-0.2-0.3-0.4-0.4 l-4.6-2.7c-1.3-0.7-2.8-0.7-4.1,0l-4.6,2.7c-0.5,0.3-0.7,1-0.4,1.5C796,206.6,796.1,206.7,796.3,206.8z" class="st15"/><path d="M806.7,200.9l4.6,2.7c1.3,0.7,2.8,0.7,4.1,0l11.3-6.5c0.5-0.3,0.7-1,0.4-1.5c-0.1-0.2-0.2-0.3-0.4-0.4 l-4.6-2.7c-1.3-0.7-2.8-0.7-4.1,0l-11.3,6.5c-0.5,0.3-0.7,1-0.5,1.5C806.3,200.6,806.5,200.7,806.7,200.9z" class="st15"/><path d="M690.6,279.6l4.6,2.7c1.3,0.7,2.8,0.7,4.1,0l15.4-8.9c0.5-0.3,0.7-1,0.4-1.5c-0.1-0.2-0.2-0.3-0.4-0.4 l-4.6-2.7c-1.3-0.7-2.8-0.7-4.1,0l-15.4,8.9c-0.5,0.3-0.7,1-0.4,1.5C690.3,279.4,690.4,279.5,690.6,279.6z" class="st15"/><path d="M711.6,267.5l4.6,2.7c1.3,0.7,2.8,0.7,4.1,0l4.6-2.7c0.5-0.3,0.7-1,0.4-1.5c-0.1-0.2-0.2-0.3-0.4-0.4 l-4.6-2.7c-1.3-0.7-2.8-0.7-4.1,0l-4.6,2.7c-0.5,0.3-0.8,0.9-0.5,1.5C711.2,267.3,711.4,267.4,711.6,267.5z" class="st15"/><path d="M721.9,261.6l4.6,2.7c1.3,0.7,2.8,0.7,4.1,0l4.6-2.7c0.5-0.3,0.7-1,0.4-1.5c-0.1-0.2-0.2-0.3-0.4-0.4 l-4.6-2.7c-1.3-0.7-2.8-0.7-4.1,0l-4.6,2.7c-0.5,0.3-0.7,1-0.4,1.5C721.6,261.4,721.7,261.5,721.9,261.6z" class="st15"/><path d="M732.1,255.7l4.6,2.7c1.3,0.7,2.8,0.7,4.1,0l4.6-2.7c0.5-0.3,0.7-1,0.4-1.5c-0.1-0.2-0.2-0.3-0.4-0.4 l-4.6-2.7c-1.3-0.7-2.8-0.7-4.1,0l-4.6,2.7c-0.5,0.3-0.7,1-0.4,1.5C731.8,255.5,731.9,255.6,732.1,255.7z" class="st15"/><path d="M742.3,249.9l4.6,2.7c1.3,0.7,2.8,0.7,4.1,0l4.7-2.6c0.5-0.3,0.7-1,0.4-1.5c-0.1-0.2-0.2-0.3-0.4-0.4 l-4.6-2.7c-1.3-0.7-2.8-0.7-4.1,0l-4.7,2.6c-0.5,0.3-0.7,1-0.5,1.5C742,249.6,742.1,249.7,742.3,249.9z" class="st15"/><path d="M752.6,243.9l4.6,2.7c1.3,0.7,2.8,0.7,4.1,0l4.6-2.7c0.5-0.3,0.7-1,0.4-1.5c-0.1-0.2-0.2-0.3-0.4-0.4 l-4.6-2.7c-1.3-0.7-2.8-0.7-4.1,0l-4.6,2.7c-0.5,0.3-0.7,1-0.4,1.5C752.3,243.7,752.4,243.8,752.6,243.9z" class="st15"/><path d="M762.8,238.1l4.6,2.7c1.3,0.7,2.8,0.7,4.1,0l4.6-2.7c0.5-0.3,0.7-1,0.4-1.5c-0.1-0.2-0.2-0.3-0.4-0.4 l-4.6-2.7c-1.3-0.7-2.8-0.7-4.1,0l-4.6,2.7c-0.5,0.3-0.7,1-0.4,1.5C762.5,237.8,762.7,238,762.8,238.1z" class="st15"/><path d="M773.1,232.2l4.6,2.7c1.3,0.7,2.8,0.7,4.1,0l4.6-2.7c0.5-0.3,0.7-1,0.4-1.5c-0.1-0.2-0.2-0.3-0.4-0.4 l-4.6-2.7c-1.3-0.7-2.8-0.7-4.1,0l-4.6,2.7c-0.5,0.3-0.7,0.9-0.5,1.5C772.7,231.9,772.9,232.1,773.1,232.2z" class="st15"/><path d="M783.3,226.3l4.6,2.7c1.3,0.7,2.8,0.7,4.1,0l4.6-2.7c0.5-0.3,0.7-1,0.4-1.5c-0.1-0.2-0.2-0.3-0.4-0.4 l-4.6-2.7c-1.3-0.7-2.8-0.7-4.1,0l-4.6,2.7c-0.5,0.3-0.7,1-0.4,1.5C783,226,783.1,226.2,783.3,226.3z" class="st15"/><path d="M793.5,220.4l4.6,2.7c1.3,0.7,2.8,0.7,4.1,0l4.6-2.7c0.5-0.3,0.7-1,0.4-1.5c-0.1-0.2-0.2-0.3-0.4-0.4 l-4.6-2.7c-1.3-0.7-2.8-0.7-4.1,0l-4.6,2.7c-0.5,0.3-0.7,1-0.4,1.5C793.2,220.2,793.4,220.3,793.5,220.4z" class="st15"/><path d="M803.8,214.5l4.6,2.7c1.3,0.7,2.8,0.7,4.1,0l4.6-2.7c0.5-0.3,0.7-1,0.4-1.5c-0.1-0.2-0.2-0.3-0.4-0.4 l-4.6-2.7c-1.3-0.7-2.8-0.7-4.1,0l-4.6,2.7c-0.5,0.3-0.7,1-0.4,1.5C803.5,214.3,803.6,214.4,803.8,214.5z" class="st15"/><path d="M814,208.6l4.6,2.7c1.3,0.7,2.8,0.7,4.1,0l14.4-8.3c0.5-0.3,0.7-1,0.4-1.5c-0.1-0.2-0.2-0.3-0.4-0.4 l-4.6-2.7c-1.3-0.7-2.8-0.7-4.1,0l-14.4,8.3c-0.5,0.3-0.7,1-0.4,1.5C813.7,208.4,813.8,208.5,814,208.6z" class="st15"/><path d="M701,285.6l4.6,2.7c1.3,0.7,2.8,0.7,4.1,0l8.1-4.6c0.5-0.3,0.7-1,0.4-1.5c-0.1-0.2-0.2-0.3-0.4-0.4l-4.6-2.7 c-1.3-0.7-2.8-0.7-4.1,0l-8.1,4.6c-0.5,0.3-0.7,1-0.4,1.5C700.7,285.4,700.8,285.5,701,285.6z" class="st15"/><path d="M714.7,277.8l4.6,2.7c1.3,0.7,2.8,0.7,4.1,0l4.6-2.7c0.5-0.3,0.7-1,0.4-1.5c-0.1-0.2-0.2-0.3-0.4-0.4 l-4.6-2.7c-1.3-0.7-2.8-0.7-4.1,0l-4.6,2.7c-0.5,0.3-0.7,1-0.4,1.5C714.4,277.5,714.5,277.7,714.7,277.8z" class="st15"/><path d="M724.9,271.9l4.6,2.7c1.3,0.7,2.8,0.7,4.1,0l4.6-2.7c0.5-0.3,0.7-1,0.4-1.5c-0.1-0.2-0.2-0.3-0.4-0.4 l-4.6-2.7c-1.3-0.7-2.8-0.7-4.1,0l-4.6,2.7c-0.5,0.3-0.7,1-0.4,1.5C724.6,271.7,724.7,271.8,724.9,271.9z" class="st15"/><path d="M735.2,266l4.6,2.7c1.3,0.7,2.8,0.7,4.1,0l4.6-2.7c0.5-0.3,0.7-1,0.4-1.5c-0.1-0.2-0.2-0.3-0.4-0.4l-4.6-2.7 c-1.3-0.7-2.8-0.7-4.1,0l-4.6,2.7c-0.5,0.3-0.7,1-0.4,1.5C734.9,265.7,735,265.9,735.2,266z" class="st15"/><path d="M745.4,260.1l4.6,2.7c1.3,0.7,2.8,0.7,4.1,0l45.6-26.2c0.5-0.3,0.7-1,0.4-1.5c-0.1-0.2-0.2-0.3-0.4-0.4 L795,232c-1.3-0.7-2.8-0.7-4.1,0l-45.6,26.2c-0.5,0.3-0.7,1-0.4,1.5C745.1,259.9,745.2,260,745.4,260.1z" class="st15"/><path d="M796.6,230.6l4.6,2.7c1.3,0.7,2.8,0.7,4.1,0l4.6-2.7c0.5-0.3,0.7-1,0.4-1.5c-0.1-0.2-0.2-0.3-0.4-0.4 l-4.6-2.7c-1.3-0.7-2.8-0.7-4.1,0l-4.6,2.7c-0.5,0.3-0.7,1-0.4,1.5C796.3,230.4,796.4,230.5,796.6,230.6z" class="st15"/><path d="M806.8,224.7l4.6,2.7c1.3,0.7,2.8,0.7,4.1,0l4.6-2.7c0.5-0.3,0.7-1,0.4-1.5c-0.1-0.2-0.2-0.3-0.4-0.4 l-4.6-2.7c-1.3-0.7-2.8-0.7-4.1,0l-4.6,2.7c-0.5,0.3-0.7,1-0.4,1.5C806.5,224.5,806.7,224.6,806.8,224.7z" class="st15"/><path d="M817.1,218.9l4.6,2.7c1.3,0.7,2.8,0.7,4.1,0l4.6-2.7c0.5-0.3,0.7-1,0.4-1.5c-0.1-0.2-0.2-0.3-0.4-0.4 l-4.6-2.7c-1.3-0.7-2.8-0.7-4.1,0l-4.6,2.7c-0.5,0.3-0.7,1-0.4,1.5C816.8,218.6,816.9,218.8,817.1,218.9z" class="st15"/><path d="M827.4,212.9l4.6,2.7c1.3,0.7,2.8,0.7,4.1,0l11.3-6.5c0.5-0.3,0.7-1,0.4-1.5c-0.1-0.2-0.2-0.3-0.4-0.4 l-4.6-2.7c-1.3-0.7-2.8-0.7-4.1,0l-11.3,6.5c-0.5,0.3-0.7,1-0.4,1.5C827.1,212.7,827.3,212.8,827.4,212.9z" class="st15"/><linearGradient id="SVGID_28_" x1="1015.13" x2="1015.13" y1="-419" y2="-149.99" gradientTransform="matrix(1 0 0 -1 -357.13 -26.09)" gradientUnits="userSpaceOnUse"><stop offset="0" style="stop-color:#fff"/><stop offset="1" style="stop-color:#98b4f7"/></linearGradient><path d="M653.1,257.4l1.1,0.6c1.3,0.7,2.8,0.7,4.1,0l4.6-2.7c0.5-0.3,0.7-1,0.4-1.5c-0.1-0.2-0.2-0.3-0.4-0.4 l-1.1-0.6c-1.3-0.7-2.8-0.7-4.1,0l-4.6,2.7c-0.5,0.3-0.7,1-0.4,1.5C652.8,257.1,652.9,257.3,653.1,257.4z" class="st37"/><linearGradient id="SVGID_29_" x1="1025.37" x2="1025.37" y1="-419" y2="-149.99" gradientTransform="matrix(1 0 0 -1 -357.13 -26.09)" gradientUnits="userSpaceOnUse"><stop offset="0" style="stop-color:#fff"/><stop offset="1" style="stop-color:#98b4f7"/></linearGradient><path d="M663.4,251.5l1.1,0.6c1.3,0.7,2.8,0.7,4.1,0l4.6-2.7c0.5-0.3,0.7-1,0.4-1.5c-0.1-0.2-0.2-0.3-0.4-0.4 l-1.1-0.6c-1.3-0.7-2.8-0.7-4.1,0l-4.6,2.7c-0.5,0.3-0.7,1-0.4,1.5C663.1,251.2,663.2,251.4,663.4,251.5z" class="st38"/><linearGradient id="SVGID_30_" x1="1035.62" x2="1035.62" y1="-419" y2="-149.99" gradientTransform="matrix(1 0 0 -1 -357.13 -26.09)" gradientUnits="userSpaceOnUse"><stop offset="0" style="stop-color:#fff"/><stop offset="1" style="stop-color:#98b4f7"/></linearGradient><path d="M673.6,245.6l1.1,0.6c1.3,0.7,2.8,0.7,4.1,0l4.6-2.7c0.5-0.3,0.7-1,0.4-1.5c-0.1-0.2-0.2-0.3-0.4-0.4 l-1.1-0.6c-1.3-0.7-2.8-0.7-4.1,0l-4.6,2.7c-0.5,0.3-0.7,1-0.4,1.5C673.3,245.3,673.4,245.5,673.6,245.6z" class="st39"/><linearGradient id="SVGID_31_" x1="1045.86" x2="1045.86" y1="-419" y2="-149.99" gradientTransform="matrix(1 0 0 -1 -357.13 -26.09)" gradientUnits="userSpaceOnUse"><stop offset="0" style="stop-color:#fff"/><stop offset="1" style="stop-color:#98b4f7"/></linearGradient><path d="M683.8,239.7l1.1,0.6c1.3,0.7,2.8,0.7,4.1,0l4.6-2.7c0.5-0.3,0.7-1,0.4-1.5c-0.1-0.2-0.2-0.3-0.4-0.4 l-1.1-0.6c-1.3-0.7-2.8-0.7-4.1,0l-4.6,2.7c-0.5,0.3-0.7,1-0.4,1.5C683.5,239.4,683.7,239.6,683.8,239.7z" class="st40"/><linearGradient id="SVGID_32_" x1="1056.109" x2="1056.109" y1="-419" y2="-149.99" gradientTransform="matrix(1 0 0 -1 -357.13 -26.09)" gradientUnits="userSpaceOnUse"><stop offset="0" style="stop-color:#fff"/><stop offset="1" style="stop-color:#98b4f7"/></linearGradient><path d="M694.1,233.8l1.1,0.6c1.3,0.7,2.8,0.7,4.1,0l4.6-2.7c0.5-0.3,0.7-1,0.4-1.5c-0.1-0.2-0.2-0.3-0.4-0.4 l-1.1-0.6c-1.3-0.7-2.8-0.7-4.1,0l-4.6,2.7c-0.5,0.3-0.7,1-0.4,1.5C693.8,233.6,693.9,233.7,694.1,233.8z" class="st41"/><linearGradient id="SVGID_33_" x1="1066.34" x2="1066.34" y1="-419" y2="-149.99" gradientTransform="matrix(1 0 0 -1 -357.13 -26.09)" gradientUnits="userSpaceOnUse"><stop offset="0" style="stop-color:#fff"/><stop offset="1" style="stop-color:#98b4f7"/></linearGradient><path d="M704.3,227.9l1.1,0.6c1.3,0.7,2.8,0.7,4.1,0l4.6-2.7c0.5-0.3,0.7-1,0.4-1.5c-0.1-0.2-0.2-0.3-0.4-0.4 l-1.1-0.6c-1.3-0.7-2.8-0.7-4.1,0l-4.6,2.7c-0.5,0.3-0.7,1-0.4,1.5C704,227.7,704.2,227.8,704.3,227.9z" class="st42"/><linearGradient id="SVGID_34_" x1="1076.58" x2="1076.58" y1="-419" y2="-149.99" gradientTransform="matrix(1 0 0 -1 -357.13 -26.09)" gradientUnits="userSpaceOnUse"><stop offset="0" style="stop-color:#fff"/><stop offset="1" style="stop-color:#98b4f7"/></linearGradient><path d="M714.6,222l1.1,0.6c1.3,0.7,2.8,0.7,4.1,0l4.6-2.7c0.5-0.3,0.7-1,0.4-1.5c-0.1-0.2-0.2-0.3-0.4-0.4l-1.1-0.6 c-1.3-0.7-2.8-0.7-4.1,0l-4.6,2.7c-0.5,0.3-0.7,1-0.4,1.5C714.3,221.8,714.4,221.9,714.6,222z" class="st43"/><linearGradient id="SVGID_35_" x1="1086.82" x2="1086.82" y1="-419" y2="-149.99" gradientTransform="matrix(1 0 0 -1 -357.13 -26.09)" gradientUnits="userSpaceOnUse"><stop offset="0" style="stop-color:#fff"/><stop offset="1" style="stop-color:#98b4f7"/></linearGradient><path d="M724.8,216.1l1.1,0.6c1.3,0.7,2.8,0.7,4.1,0l4.6-2.7c0.5-0.3,0.7-1,0.4-1.5c-0.1-0.2-0.2-0.3-0.4-0.4 l-1.1-0.6c-1.3-0.7-2.8-0.7-4.1,0l-4.6,2.7c-0.5,0.3-0.7,1-0.4,1.5C724.5,215.9,724.6,216,724.8,216.1z" class="st44"/><linearGradient id="SVGID_36_" x1="1097.06" x2="1097.06" y1="-419" y2="-149.99" gradientTransform="matrix(1 0 0 -1 -357.13 -26.09)" gradientUnits="userSpaceOnUse"><stop offset="0" style="stop-color:#fff"/><stop offset="1" style="stop-color:#98b4f7"/></linearGradient><path d="M735,210.2l1.1,0.6c1.3,0.7,2.8,0.7,4.1,0l4.6-2.7c0.5-0.3,0.7-1,0.4-1.5c-0.1-0.2-0.2-0.3-0.4-0.4l-1.1-0.6 c-1.3-0.7-2.8-0.7-4.1,0l-4.6,2.7c-0.5,0.3-0.7,1-0.4,1.5C734.7,210,734.9,210.1,735,210.2z" class="st45"/><linearGradient id="SVGID_37_" x1="1107.3" x2="1107.3" y1="-419" y2="-149.99" gradientTransform="matrix(1 0 0 -1 -357.13 -26.09)" gradientUnits="userSpaceOnUse"><stop offset="0" style="stop-color:#fff"/><stop offset="1" style="stop-color:#98b4f7"/></linearGradient><path d="M745.3,204.3l1.1,0.6c1.3,0.7,2.8,0.7,4.1,0l4.6-2.7c0.5-0.3,0.7-1,0.4-1.5c-0.1-0.2-0.2-0.3-0.4-0.4 l-1.1-0.6c-1.3-0.7-2.8-0.7-4.1,0l-4.6,2.7c-0.5,0.3-0.7,1-0.4,1.5C745,204.1,745.1,204.2,745.3,204.3z" class="st46"/><linearGradient id="SVGID_38_" x1="1117.54" x2="1117.54" y1="-419" y2="-149.99" gradientTransform="matrix(1 0 0 -1 -357.13 -26.09)" gradientUnits="userSpaceOnUse"><stop offset="0" style="stop-color:#fff"/><stop offset="1" style="stop-color:#98b4f7"/></linearGradient><path d="M755.5,198.4l1.1,0.6c1.3,0.7,2.8,0.7,4.1,0l4.6-2.7c0.5-0.3,0.7-1,0.4-1.5c-0.1-0.2-0.2-0.3-0.4-0.4 l-1.1-0.6c-1.3-0.7-2.8-0.7-4.1,0l-4.6,2.7c-0.5,0.3-0.7,1-0.4,1.5C755.2,198.2,755.4,198.4,755.5,198.4z" class="st47"/><linearGradient id="SVGID_39_" x1="1127.781" x2="1127.781" y1="-419" y2="-149.99" gradientTransform="matrix(1 0 0 -1 -357.13 -26.09)" gradientUnits="userSpaceOnUse"><stop offset="0" style="stop-color:#fff"/><stop offset="1" style="stop-color:#98b4f7"/></linearGradient><path d="M765.7,192.6l1.1,0.6c1.3,0.7,2.8,0.7,4.1,0l4.6-2.7c0.5-0.3,0.7-1,0.4-1.5c-0.1-0.2-0.2-0.3-0.4-0.4 l-1.1-0.6c-1.3-0.7-2.8-0.7-4.1,0l-4.6,2.7c-0.5,0.3-0.6,1-0.3,1.6C765.5,192.3,765.6,192.4,765.7,192.6z" class="st48"/><linearGradient id="SVGID_40_" x1="1138.03" x2="1138.03" y1="-419" y2="-149.99" gradientTransform="matrix(1 0 0 -1 -357.13 -26.09)" gradientUnits="userSpaceOnUse"><stop offset="0" style="stop-color:#fff"/><stop offset="1" style="stop-color:#98b4f7"/></linearGradient><path d="M776,186.7l1.1,0.6c1.3,0.7,2.8,0.7,4.1,0l4.6-2.7c0.5-0.3,0.7-1,0.4-1.5c-0.1-0.2-0.2-0.3-0.4-0.4l-1.1-0.6 c-1.3-0.7-2.8-0.7-4.1,0l-4.6,2.7c-0.5,0.3-0.7,1-0.4,1.5C775.7,186.4,775.8,186.6,776,186.7z" class="st49"/><linearGradient id="SVGID_41_" x1="1148.27" x2="1148.27" y1="-419" y2="-149.99" gradientTransform="matrix(1 0 0 -1 -357.13 -26.09)" gradientUnits="userSpaceOnUse"><stop offset="0" style="stop-color:#fff"/><stop offset="1" style="stop-color:#98b4f7"/></linearGradient><path d="M786.3,180.8l1.1,0.6c1.3,0.7,2.8,0.7,4.1,0l4.6-2.7c0.5-0.3,0.7-1,0.4-1.5c-0.1-0.2-0.2-0.3-0.4-0.4 l-1.1-0.6c-1.3-0.7-2.8-0.7-4.1,0l-4.6,2.7c-0.5,0.3-0.7,1-0.4,1.5C786,180.5,786.1,180.7,786.3,180.8z" class="st50"/><linearGradient id="SVGID_42_" x1="1023.33" x2="1023.33" y1="-419" y2="-149.99" gradientTransform="matrix(1 0 0 -1 -357.13 -26.09)" gradientUnits="userSpaceOnUse"><stop offset="0" style="stop-color:#fff"/><stop offset="1" style="stop-color:#98b4f7"/></linearGradient><path d="M659.5,261.1l4.6,2.7c1.3,0.7,2.8,0.7,4.1,0l4.6-2.7c0.5-0.3,0.7-1,0.4-1.5c-0.1-0.2-0.2-0.3-0.4-0.4 l-4.6-2.7c-1.3-0.7-2.8-0.7-4.1,0l-4.6,2.7c-0.5,0.3-0.7,1-0.4,1.5C659.2,260.8,659.4,261,659.5,261.1z" class="st51"/><linearGradient id="SVGID_43_" x1="1033.53" x2="1033.53" y1="-419" y2="-149.99" gradientTransform="matrix(1 0 0 -1 -357.13 -26.09)" gradientUnits="userSpaceOnUse"><stop offset="0" style="stop-color:#fff"/><stop offset="1" style="stop-color:#98b4f7"/></linearGradient><path d="M669.7,255.2l4.6,2.7c1.3,0.7,2.8,0.7,4.1,0l4.6-2.7c0.5-0.3,0.7-1,0.4-1.5c-0.1-0.2-0.2-0.3-0.4-0.4 l-4.6-2.7c-1.3-0.7-2.8-0.7-4.1,0l-4.6,2.7c-0.5,0.3-0.7,1-0.4,1.5C669.4,254.9,669.6,255.1,669.7,255.2z" class="st52"/><linearGradient id="SVGID_44_" x1="1043.817" x2="1043.817" y1="-419" y2="-149.99" gradientTransform="matrix(1 0 0 -1 -357.13 -26.09)" gradientUnits="userSpaceOnUse"><stop offset="0" style="stop-color:#fff"/><stop offset="1" style="stop-color:#98b4f7"/></linearGradient><path d="M680,249.3l4.6,2.7c1.3,0.7,2.8,0.7,4.1,0l4.6-2.7c0.5-0.3,0.7-1,0.4-1.5c-0.1-0.2-0.2-0.3-0.4-0.4l-4.6-2.7 c-1.3-0.7-2.8-0.7-4.1,0l-4.6,2.7c-0.5,0.3-0.7,1-0.4,1.5C679.7,249.1,679.9,249.2,680,249.3z" class="st53"/><linearGradient id="SVGID_45_" x1="1054.05" x2="1054.05" y1="-419" y2="-149.99" gradientTransform="matrix(1 0 0 -1 -357.13 -26.09)" gradientUnits="userSpaceOnUse"><stop offset="0" style="stop-color:#fff"/><stop offset="1" style="stop-color:#98b4f7"/></linearGradient><path d="M690.3,243.4l4.6,2.7c1.3,0.7,2.8,0.7,4.1,0l4.6-2.7c0.5-0.3,0.7-1,0.4-1.5c-0.1-0.2-0.2-0.3-0.4-0.4 l-4.6-2.7c-1.3-0.7-2.8-0.7-4.1,0l-4.6,2.7c-0.5,0.3-0.7,1-0.4,1.5C690,243.2,690.1,243.3,690.3,243.4z" class="st54"/><linearGradient id="SVGID_46_" x1="1064.275" x2="1064.275" y1="-419" y2="-149.99" gradientTransform="matrix(1 0 0 -1 -357.13 -26.09)" gradientUnits="userSpaceOnUse"><stop offset="0" style="stop-color:#fff"/><stop offset="1" style="stop-color:#98b4f7"/></linearGradient><path d="M700.5,237.5l4.6,2.7c1.3,0.7,2.8,0.7,4.1,0l4.6-2.7c0.5-0.3,0.7-1,0.4-1.5c-0.1-0.2-0.2-0.3-0.4-0.4 l-4.6-2.7c-1.3-0.7-2.8-0.7-4.1,0l-4.6,2.7c-0.5,0.3-0.7,0.9-0.5,1.5C700.1,237.2,700.3,237.4,700.5,237.5z" class="st55"/><linearGradient id="SVGID_47_" x1="1074.53" x2="1074.53" y1="-419" y2="-149.99" gradientTransform="matrix(1 0 0 -1 -357.13 -26.09)" gradientUnits="userSpaceOnUse"><stop offset="0" style="stop-color:#fff"/><stop offset="1" style="stop-color:#98b4f7"/></linearGradient><path d="M710.7,231.6l4.6,2.7c1.3,0.7,2.8,0.7,4.1,0l4.6-2.7c0.5-0.3,0.7-1,0.4-1.5c-0.1-0.2-0.2-0.3-0.4-0.4 l-4.6-2.7c-1.3-0.7-2.8-0.7-4.1,0l-4.6,2.7c-0.5,0.3-0.7,1-0.4,1.5C710.4,231.4,710.6,231.5,710.7,231.6z" class="st56"/><linearGradient id="SVGID_48_" x1="1084.78" x2="1084.78" y1="-419" y2="-149.99" gradientTransform="matrix(1 0 0 -1 -357.13 -26.09)" gradientUnits="userSpaceOnUse"><stop offset="0" style="stop-color:#fff"/><stop offset="1" style="stop-color:#98b4f7"/></linearGradient><path d="M721,225.7l4.6,2.7c1.3,0.7,2.8,0.7,4.1,0l4.6-2.7c0.5-0.3,0.7-1,0.4-1.5c-0.1-0.2-0.2-0.3-0.4-0.4l-4.6-2.7 c-1.3-0.7-2.8-0.7-4.1,0l-4.6,2.7c-0.5,0.3-0.7,1-0.4,1.5C720.7,225.5,720.8,225.6,721,225.7z" class="st57"/><linearGradient id="SVGID_49_" x1="1094.999" x2="1094.999" y1="-419" y2="-149.99" gradientTransform="matrix(1 0 0 -1 -357.13 -26.09)" gradientUnits="userSpaceOnUse"><stop offset="0" style="stop-color:#fff"/><stop offset="1" style="stop-color:#98b4f7"/></linearGradient><path d="M731.2,219.8l4.6,2.7c1.3,0.7,2.8,0.7,4.1,0l4.6-2.7c0.5-0.3,0.7-1,0.4-1.5c-0.1-0.2-0.2-0.3-0.4-0.4 l-4.6-2.7c-1.3-0.7-2.8-0.7-4.1,0l-4.6,2.6c-0.5,0.3-0.7,1-0.4,1.5C730.9,219.6,731,219.7,731.2,219.8z" class="st58"/><linearGradient id="SVGID_50_" x1="1105.26" x2="1105.26" y1="-419" y2="-149.99" gradientTransform="matrix(1 0 0 -1 -357.13 -26.09)" gradientUnits="userSpaceOnUse"><stop offset="0" style="stop-color:#fff"/><stop offset="1" style="stop-color:#98b4f7"/></linearGradient><path d="M741.5,213.9l4.6,2.7c1.3,0.7,2.8,0.7,4.1,0l4.6-2.7c0.5-0.3,0.7-1,0.4-1.5c-0.1-0.2-0.2-0.3-0.4-0.4 l-4.6-2.7c-1.3-0.7-2.8-0.7-4.1,0l-4.6,2.7c-0.5,0.3-0.7,1-0.4,1.5C741.2,213.7,741.3,213.8,741.5,213.9z" class="st59"/><linearGradient id="SVGID_51_" x1="1115.53" x2="1115.53" y1="-419" y2="-149.99" gradientTransform="matrix(1 0 0 -1 -357.13 -26.09)" gradientUnits="userSpaceOnUse"><stop offset="0" style="stop-color:#fff"/><stop offset="1" style="stop-color:#98b4f7"/></linearGradient><path d="M751.7,208.1l4.6,2.7c1.3,0.7,2.8,0.7,4.1,0l4.6-2.7c0.5-0.3,0.7-1,0.4-1.5c-0.1-0.2-0.2-0.3-0.4-0.4 l-4.6-2.7c-1.3-0.7-2.8-0.7-4.1,0l-4.6,2.7c-0.5,0.3-0.7,1-0.4,1.5C751.4,207.8,751.6,208,751.7,208.1z" class="st60"/><linearGradient id="SVGID_52_" x1="1125.74" x2="1125.74" y1="-419" y2="-149.99" gradientTransform="matrix(1 0 0 -1 -357.13 -26.09)" gradientUnits="userSpaceOnUse"><stop offset="0" style="stop-color:#fff"/><stop offset="1" style="stop-color:#98b4f7"/></linearGradient><path d="M761.9,202.2l4.6,2.7c1.3,0.7,2.8,0.7,4.1,0l4.6-2.7c0.5-0.3,0.7-1,0.4-1.5c-0.1-0.2-0.2-0.3-0.4-0.4 l-4.6-2.7c-1.3-0.7-2.8-0.7-4.1,0l-4.6,2.7c-0.5,0.3-0.7,1-0.4,1.5C761.6,201.9,761.8,202.1,761.9,202.2z" class="st61"/><linearGradient id="SVGID_53_" x1="1135.987" x2="1135.987" y1="-419" y2="-149.99" gradientTransform="matrix(1 0 0 -1 -357.13 -26.09)" gradientUnits="userSpaceOnUse"><stop offset="0" style="stop-color:#fff"/><stop offset="1" style="stop-color:#98b4f7"/></linearGradient><path d="M772.2,196.3l4.6,2.7c1.3,0.7,2.8,0.7,4.1,0l4.6-2.7c0.5-0.3,0.7-1,0.4-1.5c-0.1-0.2-0.2-0.3-0.4-0.4 l-4.6-2.7c-1.3-0.7-2.8-0.7-4.1,0l-4.6,2.7c-0.5,0.3-0.7,1-0.4,1.5C771.9,196,772,196.2,772.2,196.3z" class="st62"/><linearGradient id="SVGID_54_" x1="1151.4" x2="1151.4" y1="-419" y2="-149.99" gradientTransform="matrix(1 0 0 -1 -357.13 -26.09)" gradientUnits="userSpaceOnUse"><stop offset="0" style="stop-color:#fff"/><stop offset="1" style="stop-color:#98b4f7"/></linearGradient><path d="M782.5,190.3l4.6,2.7c1.3,0.7,2.8,0.7,4.1,0l14.8-8.5c0.5-0.3,0.7-1,0.4-1.5c-0.1-0.2-0.2-0.3-0.4-0.4 l-4.6-2.7c-1.3-0.7-2.8-0.7-4.1,0l-14.8,8.5c-0.5,0.3-0.7,1-0.4,1.5C782.2,190.1,782.4,190.2,782.5,190.3z" class="st63"/><linearGradient id="SVGID_55_" x1="1035.34" x2="1035.34" y1="-419" y2="-149.99" gradientTransform="matrix(1 0 0 -1 -357.13 -26.09)" gradientUnits="userSpaceOnUse"><stop offset="0" style="stop-color:#fff"/><stop offset="1" style="stop-color:#98b4f7"/></linearGradient><path d="M669.8,267l4.6,2.7c1.3,0.7,2.8,0.7,4.1,0l8.1-4.6c0.5-0.3,0.7-1,0.4-1.5c-0.1-0.2-0.2-0.3-0.4-0.4l-4.6-2.7 c-1.3-0.7-2.8-0.7-4.1,0l-8.1,4.6c-0.5,0.3-0.7,1-0.4,1.5C669.5,266.8,669.7,266.9,669.8,267z" class="st64"/><linearGradient id="SVGID_56_" x1="1047.3" x2="1047.3" y1="-419" y2="-149.99" gradientTransform="matrix(1 0 0 -1 -357.13 -26.09)" gradientUnits="userSpaceOnUse"><stop offset="0" style="stop-color:#fff"/><stop offset="1" style="stop-color:#98b4f7"/></linearGradient><path d="M683.5,259.2l4.6,2.7c1.3,0.7,2.8,0.7,4.1,0l4.6-2.7c0.5-0.3,0.7-1,0.4-1.5c-0.1-0.2-0.2-0.3-0.4-0.4 l-4.6-2.7c-1.3-0.7-2.8-0.7-4.1,0l-4.6,2.7c-0.5,0.3-0.7,1-0.4,1.5C683.2,258.9,683.3,259.1,683.5,259.2z" class="st65"/><linearGradient id="SVGID_57_" x1="1057.53" x2="1057.53" y1="-419" y2="-149.99" gradientTransform="matrix(1 0 0 -1 -357.13 -26.09)" gradientUnits="userSpaceOnUse"><stop offset="0" style="stop-color:#fff"/><stop offset="1" style="stop-color:#98b4f7"/></linearGradient><path d="M693.7,253.3l4.6,2.7c1.3,0.7,2.8,0.7,4.1,0l4.6-2.7c0.5-0.3,0.7-1,0.4-1.5c-0.1-0.2-0.2-0.3-0.4-0.4 l-4.6-2.7c-1.3-0.7-2.8-0.7-4.1,0l-4.6,2.7c-0.5,0.3-0.7,1-0.4,1.5C693.4,253,693.6,253.2,693.7,253.3z" class="st66"/><linearGradient id="SVGID_58_" x1="1067.788" x2="1067.788" y1="-419" y2="-149.99" gradientTransform="matrix(1 0 0 -1 -357.13 -26.09)" gradientUnits="userSpaceOnUse"><stop offset="0" style="stop-color:#fff"/><stop offset="1" style="stop-color:#98b4f7"/></linearGradient><path d="M704,247.4l4.6,2.7c1.3,0.7,2.8,0.7,4.1,0l4.6-2.7c0.5-0.3,0.7-1,0.4-1.5c-0.1-0.2-0.2-0.3-0.4-0.4l-4.6-2.7 c-1.3-0.7-2.8-0.7-4.1,0l-4.6,2.7c-0.5,0.3-0.7,1-0.4,1.5C703.7,247.1,703.8,247.3,704,247.4z" class="st67"/><linearGradient id="SVGID_59_" x1="1078.014" x2="1078.014" y1="-419" y2="-149.99" gradientTransform="matrix(1 0 0 -1 -357.13 -26.09)" gradientUnits="userSpaceOnUse"><stop offset="0" style="stop-color:#fff"/><stop offset="1" style="stop-color:#98b4f7"/></linearGradient><path d="M714.2,241.5l4.6,2.7c1.3,0.7,2.8,0.7,4.1,0l4.6-2.7c0.5-0.3,0.7-1,0.4-1.5c-0.1-0.2-0.2-0.3-0.4-0.4 l-4.6-2.7c-1.3-0.7-2.8-0.7-4.1,0l-4.6,2.7c-0.5,0.3-0.7,1-0.4,1.5C713.9,241.2,714,241.4,714.2,241.5z" class="st68"/><linearGradient id="SVGID_60_" x1="1088.26" x2="1088.26" y1="-419" y2="-149.99" gradientTransform="matrix(1 0 0 -1 -357.13 -26.09)" gradientUnits="userSpaceOnUse"><stop offset="0" style="stop-color:#fff"/><stop offset="1" style="stop-color:#98b4f7"/></linearGradient><path d="M724.5,235.6l4.6,2.7c1.3,0.7,2.8,0.7,4.1,0l4.6-2.7c0.5-0.3,0.7-1,0.4-1.5c-0.1-0.2-0.2-0.3-0.4-0.4 l-4.6-2.7c-1.3-0.7-2.8-0.7-4.1,0l-4.6,2.7c-0.5,0.3-0.7,1-0.4,1.5C724.2,235.4,724.3,235.5,724.5,235.6z" class="st69"/><linearGradient id="SVGID_61_" x1="1098.53" x2="1098.53" y1="-419" y2="-149.99" gradientTransform="matrix(1 0 0 -1 -357.13 -26.09)" gradientUnits="userSpaceOnUse"><stop offset="0" style="stop-color:#fff"/><stop offset="1" style="stop-color:#98b4f7"/></linearGradient><path d="M734.7,229.7l4.6,2.7c1.3,0.7,2.8,0.7,4.1,0l4.6-2.7c0.5-0.3,0.7-1,0.4-1.5c-0.1-0.2-0.2-0.3-0.4-0.4 l-4.6-2.7c-1.3-0.7-2.8-0.7-4.1,0l-4.6,2.7c-0.5,0.3-0.7,1-0.4,1.5C734.4,229.5,734.6,229.6,734.7,229.7z" class="st70"/><linearGradient id="SVGID_62_" x1="1108.738" x2="1108.738" y1="-419" y2="-149.99" gradientTransform="matrix(1 0 0 -1 -357.13 -26.09)" gradientUnits="userSpaceOnUse"><stop offset="0" style="stop-color:#fff"/><stop offset="1" style="stop-color:#98b4f7"/></linearGradient><path d="M744.9,223.8l4.6,2.7c1.3,0.7,2.8,0.7,4.1,0l4.6-2.7c0.5-0.3,0.7-1,0.4-1.5c-0.1-0.2-0.2-0.3-0.4-0.4 l-4.6-2.7c-1.3-0.7-2.8-0.7-4.1,0l-4.6,2.7c-0.5,0.3-0.7,1-0.4,1.5C744.6,223.6,744.8,223.7,744.9,223.8z" class="st71"/><linearGradient id="SVGID_63_" x1="1118.99" x2="1118.99" y1="-419" y2="-149.99" gradientTransform="matrix(1 0 0 -1 -357.13 -26.09)" gradientUnits="userSpaceOnUse"><stop offset="0" style="stop-color:#fff"/><stop offset="1" style="stop-color:#98b4f7"/></linearGradient><path d="M755.2,217.9l4.6,2.7c1.3,0.7,2.8,0.7,4.1,0l4.6-2.7c0.5-0.3,0.7-1,0.4-1.5c-0.1-0.2-0.2-0.3-0.4-0.4 l-4.6-2.7c-1.3-0.7-2.8-0.7-4.1,0l-4.6,2.7c-0.5,0.3-0.7,1-0.4,1.5C754.9,217.7,755,217.8,755.2,217.9z" class="st72"/><linearGradient id="SVGID_64_" x1="1129.23" x2="1129.23" y1="-419" y2="-149.99" gradientTransform="matrix(1 0 0 -1 -357.13 -26.09)" gradientUnits="userSpaceOnUse"><stop offset="0" style="stop-color:#fff"/><stop offset="1" style="stop-color:#98b4f7"/></linearGradient><path d="M765.4,212l4.6,2.7c1.3,0.7,2.8,0.7,4.1,0l4.6-2.7c0.5-0.3,0.7-1,0.4-1.5c-0.1-0.2-0.2-0.3-0.4-0.4l-4.6-2.7 c-1.3-0.7-2.8-0.7-4.1,0l-4.6,2.7c-0.5,0.3-0.7,1-0.4,1.5C765.1,211.8,765.3,211.9,765.4,212z" class="st73"/><linearGradient id="SVGID_65_" x1="1139.47" x2="1139.47" y1="-419" y2="-149.99" gradientTransform="matrix(1 0 0 -1 -357.13 -26.09)" gradientUnits="userSpaceOnUse"><stop offset="0" style="stop-color:#fff"/><stop offset="1" style="stop-color:#98b4f7"/></linearGradient><path d="M775.7,206.1l4.6,2.7c1.3,0.7,2.8,0.7,4.1,0l4.6-2.7c0.5-0.3,0.7-1,0.4-1.5c-0.1-0.2-0.2-0.3-0.4-0.4 l-4.6-2.7c-1.3-0.7-2.8-0.7-4.1,0l-4.6,2.7c-0.5,0.3-0.7,1-0.4,1.5C775.4,205.9,775.5,206.1,775.7,206.1z" class="st74"/><linearGradient id="SVGID_66_" x1="1149.71" x2="1149.71" y1="-419" y2="-149.99" gradientTransform="matrix(1 0 0 -1 -357.13 -26.09)" gradientUnits="userSpaceOnUse"><stop offset="0" style="stop-color:#fff"/><stop offset="1" style="stop-color:#98b4f7"/></linearGradient><path d="M785.9,200.3l4.6,2.7c1.3,0.7,2.8,0.7,4.1,0l4.6-2.7c0.5-0.3,0.7-1,0.4-1.5c-0.1-0.2-0.2-0.3-0.4-0.4 l-4.6-2.7c-1.3-0.7-2.8-0.7-4.1,0l-4.6,2.7c-0.5,0.3-0.7,1-0.4,1.5C785.6,200,785.7,200.2,785.9,200.3z" class="st75"/><linearGradient id="SVGID_67_" x1="1163.41" x2="1163.41" y1="-419" y2="-149.99" gradientTransform="matrix(1 0 0 -1 -357.13 -26.09)" gradientUnits="userSpaceOnUse"><stop offset="0" style="stop-color:#fff"/><stop offset="1" style="stop-color:#98b4f7"/></linearGradient><path d="M796.3,194.3l4.6,2.7c1.3,0.7,2.8,0.7,4.1,0l11.3-6.5c0.5-0.3,0.7-1,0.4-1.5c-0.1-0.2-0.2-0.3-0.4-0.4 l-4.6-2.7c-1.3-0.7-2.8-0.7-4.1,0l-11.3,6.5c-0.5,0.3-0.7,1-0.4,1.5C796,194.1,796.1,194.2,796.3,194.3z" class="st76"/><linearGradient id="SVGID_68_" x1="1045.73" x2="1045.73" y1="-419" y2="-149.99" gradientTransform="matrix(1 0 0 -1 -357.13 -26.09)" gradientUnits="userSpaceOnUse"><stop offset="0" style="stop-color:#fff"/><stop offset="1" style="stop-color:#98b4f7"/></linearGradient><path d="M680.2,273.1l4.6,2.7c1.3,0.7,2.8,0.7,4.1,0l8.1-4.6c0.5-0.3,0.7-1,0.4-1.5c-0.1-0.2-0.2-0.3-0.4-0.4 l-4.6-2.7c-1.3-0.7-2.8-0.7-4.1,0l-8.1,4.6c-0.5,0.3-0.7,1-0.4,1.5C679.9,272.8,680,273,680.2,273.1z" class="st77"/><linearGradient id="SVGID_69_" x1="1057.69" x2="1057.69" y1="-419" y2="-149.99" gradientTransform="matrix(1 0 0 -1 -357.13 -26.09)" gradientUnits="userSpaceOnUse"><stop offset="0" style="stop-color:#fff"/><stop offset="1" style="stop-color:#98b4f7"/></linearGradient><path d="M693.9,265.2l4.6,2.7c1.3,0.7,2.8,0.7,4.1,0l4.6-2.7c0.5-0.3,0.7-1,0.4-1.5c-0.1-0.2-0.2-0.3-0.4-0.4 l-4.6-2.7c-1.3-0.7-2.8-0.7-4.1,0l-4.6,2.7c-0.5,0.3-0.7,1-0.4,1.5C693.6,265,693.7,265.1,693.9,265.2z" class="st78"/><linearGradient id="SVGID_70_" x1="1067.93" x2="1067.93" y1="-419" y2="-149.99" gradientTransform="matrix(1 0 0 -1 -357.13 -26.09)" gradientUnits="userSpaceOnUse"><stop offset="0" style="stop-color:#fff"/><stop offset="1" style="stop-color:#98b4f7"/></linearGradient><path d="M704.1,259.3l4.6,2.7c1.3,0.7,2.8,0.7,4.1,0l4.6-2.7c0.5-0.3,0.7-1,0.4-1.5c-0.1-0.2-0.2-0.3-0.4-0.4 l-4.6-2.7c-1.3-0.7-2.8-0.7-4.1,0l-4.6,2.7c-0.5,0.3-0.7,1-0.4,1.5C703.8,259.1,704,259.2,704.1,259.3z" class="st79"/><linearGradient id="SVGID_71_" x1="1078.17" x2="1078.17" y1="-419" y2="-149.99" gradientTransform="matrix(1 0 0 -1 -357.13 -26.09)" gradientUnits="userSpaceOnUse"><stop offset="0" style="stop-color:#fff"/><stop offset="1" style="stop-color:#98b4f7"/></linearGradient><path d="M714.4,253.4l4.6,2.7c1.3,0.7,2.8,0.7,4.1,0l4.6-2.7c0.5-0.3,0.7-1,0.4-1.5c-0.1-0.2-0.2-0.3-0.4-0.4 l-4.6-2.7c-1.3-0.7-2.8-0.7-4.1,0l-4.6,2.7c-0.5,0.3-0.7,1-0.4,1.5C714.1,253.2,714.2,253.3,714.4,253.4z" class="st80"/><linearGradient id="SVGID_72_" x1="1088.395" x2="1088.395" y1="-419" y2="-149.99" gradientTransform="matrix(1 0 0 -1 -357.13 -26.09)" gradientUnits="userSpaceOnUse"><stop offset="0" style="stop-color:#fff"/><stop offset="1" style="stop-color:#98b4f7"/></linearGradient><path d="M724.6,247.5l4.6,2.7c1.3,0.7,2.8,0.7,4.1,0l4.6-2.7c0.5-0.3,0.7-1,0.4-1.5c-0.1-0.2-0.2-0.3-0.4-0.4 l-4.6-2.7c-1.3-0.7-2.8-0.7-4.1,0l-4.6,2.7c-0.5,0.3-0.7,0.9-0.5,1.5C724.3,247.2,724.4,247.4,724.6,247.5z" class="st81"/><linearGradient id="SVGID_73_" x1="1098.65" x2="1098.65" y1="-419" y2="-149.99" gradientTransform="matrix(1 0 0 -1 -357.13 -26.09)" gradientUnits="userSpaceOnUse"><stop offset="0" style="stop-color:#fff"/><stop offset="1" style="stop-color:#98b4f7"/></linearGradient><path d="M734.9,241.6l4.6,2.7c1.3,0.7,2.8,0.7,4.1,0l4.6-2.7c0.5-0.3,0.7-1,0.4-1.5c-0.1-0.2-0.2-0.3-0.4-0.4 l-4.6-2.7c-1.3-0.7-2.8-0.7-4.1,0l-4.6,2.7c-0.5,0.3-0.7,1-0.4,1.5C734.6,241.4,734.7,241.5,734.9,241.6z" class="st82"/><linearGradient id="SVGID_74_" x1="1108.89" x2="1108.89" y1="-419" y2="-149.99" gradientTransform="matrix(1 0 0 -1 -357.13 -26.09)" gradientUnits="userSpaceOnUse"><stop offset="0" style="stop-color:#fff"/><stop offset="1" style="stop-color:#98b4f7"/></linearGradient><path d="M745.1,235.7l4.6,2.7c1.3,0.7,2.8,0.7,4.1,0l4.6-2.7c0.5-0.3,0.7-1,0.4-1.5c-0.1-0.2-0.2-0.3-0.4-0.4 l-4.6-2.7c-1.3-0.7-2.8-0.7-4.1,0l-4.6,2.7c-0.5,0.3-0.7,1-0.4,1.5C744.8,235.5,744.9,235.6,745.1,235.7z" class="st83"/><linearGradient id="SVGID_75_" x1="1119.195" x2="1119.195" y1="-419" y2="-149.99" gradientTransform="matrix(1 0 0 -1 -357.13 -26.09)" gradientUnits="userSpaceOnUse"><stop offset="0" style="stop-color:#fff"/><stop offset="1" style="stop-color:#98b4f7"/></linearGradient><path d="M755.3,229.8l4.6,2.7c1.3,0.7,2.8,0.7,4.1,0l4.7-2.6c0.5-0.3,0.7-1,0.4-1.5c-0.1-0.2-0.2-0.3-0.4-0.4 l-4.6-2.7c-1.3-0.7-2.8-0.7-4.1,0l-4.6,2.7c-0.5,0.3-0.7,1-0.4,1.5C755.1,229.6,755.2,229.8,755.3,229.8z" class="st84"/><linearGradient id="SVGID_76_" x1="1129.358" x2="1129.358" y1="-419" y2="-149.99" gradientTransform="matrix(1 0 0 -1 -357.13 -26.09)" gradientUnits="userSpaceOnUse"><stop offset="0" style="stop-color:#fff"/><stop offset="1" style="stop-color:#98b4f7"/></linearGradient><path d="M765.6,223.9l4.6,2.7c1.3,0.7,2.8,0.7,4.1,0l4.6-2.7c0.5-0.3,0.7-1,0.4-1.5c-0.1-0.2-0.2-0.3-0.4-0.4 l-4.6-2.7c-1.3-0.7-2.8-0.7-4.1,0l-4.6,2.7c-0.5,0.3-0.7,0.9-0.5,1.5C765.2,223.7,765.4,223.8,765.6,223.9z" class="st85"/><linearGradient id="SVGID_77_" x1="1139.62" x2="1139.62" y1="-419" y2="-149.99" gradientTransform="matrix(1 0 0 -1 -357.13 -26.09)" gradientUnits="userSpaceOnUse"><stop offset="0" style="stop-color:#fff"/><stop offset="1" style="stop-color:#98b4f7"/></linearGradient><path d="M775.8,218.1l4.6,2.7c1.3,0.7,2.8,0.7,4.1,0l4.6-2.7c0.5-0.3,0.7-1,0.4-1.5c-0.1-0.2-0.2-0.3-0.4-0.4 l-4.6-2.7c-1.3-0.7-2.8-0.7-4.1,0l-4.6,2.7c-0.5,0.3-0.7,1-0.4,1.5C775.5,217.8,775.7,218,775.8,218.1z" class="st86"/><linearGradient id="SVGID_78_" x1="1149.86" x2="1149.86" y1="-419" y2="-149.99" gradientTransform="matrix(1 0 0 -1 -357.13 -26.09)" gradientUnits="userSpaceOnUse"><stop offset="0" style="stop-color:#fff"/><stop offset="1" style="stop-color:#98b4f7"/></linearGradient><path d="M786.1,212.2l4.6,2.7c1.3,0.7,2.8,0.7,4.1,0l4.6-2.7c0.5-0.3,0.7-1,0.4-1.5c-0.1-0.2-0.2-0.3-0.4-0.4 l-4.6-2.7c-1.3-0.7-2.8-0.7-4.1,0l-4.6,2.7c-0.5,0.3-0.7,1-0.4,1.5C785.8,211.9,785.9,212.1,786.1,212.2z" class="st87"/><linearGradient id="SVGID_79_" x1="1160.1" x2="1160.1" y1="-419" y2="-149.99" gradientTransform="matrix(1 0 0 -1 -357.13 -26.09)" gradientUnits="userSpaceOnUse"><stop offset="0" style="stop-color:#fff"/><stop offset="1" style="stop-color:#98b4f7"/></linearGradient><path d="M796.3,206.3l4.6,2.7c1.3,0.7,2.8,0.7,4.1,0l4.6-2.7c0.5-0.3,0.7-1,0.4-1.5c-0.1-0.2-0.2-0.3-0.4-0.4 l-4.6-2.7c-1.3-0.7-2.8-0.7-4.1,0l-4.6,2.7c-0.5,0.3-0.7,1-0.4,1.5C796,206,796.1,206.2,796.3,206.3z" class="st88"/><linearGradient id="SVGID_80_" x1="1173.8" x2="1173.8" y1="-419" y2="-149.99" gradientTransform="matrix(1 0 0 -1 -357.13 -26.09)" gradientUnits="userSpaceOnUse"><stop offset="0" style="stop-color:#fff"/><stop offset="1" style="stop-color:#98b4f7"/></linearGradient><path d="M806.7,200.3l4.6,2.7c1.3,0.7,2.8,0.7,4.1,0l11.3-6.5c0.5-0.3,0.7-1,0.4-1.5c-0.1-0.2-0.2-0.3-0.4-0.4 l-4.6-2.7c-1.3-0.7-2.8-0.7-4.1,0l-11.3,6.5c-0.5,0.3-0.7,1-0.4,1.5C806.4,200.1,806.5,200.2,806.7,200.3z" class="st89"/><linearGradient id="SVGID_81_" x1="1059.802" x2="1059.802" y1="-419" y2="-149.99" gradientTransform="matrix(1 0 0 -1 -357.13 -26.09)" gradientUnits="userSpaceOnUse"><stop offset="0" style="stop-color:#fff"/><stop offset="1" style="stop-color:#98b4f7"/></linearGradient><path d="M690.6,279.1l4.6,2.7c1.3,0.7,2.8,0.7,4.1,0l15.4-8.8c0.5-0.3,0.7-1,0.4-1.5c-0.1-0.2-0.2-0.3-0.4-0.4 l-4.6-2.7c-1.3-0.7-2.8-0.7-4.1,0l-15.4,8.9c-0.5,0.3-0.7,1-0.4,1.5C690.3,278.9,690.4,279,690.6,279.1z" class="st90"/><linearGradient id="SVGID_82_" x1="1075.41" x2="1075.41" y1="-419" y2="-149.99" gradientTransform="matrix(1 0 0 -1 -357.13 -26.09)" gradientUnits="userSpaceOnUse"><stop offset="0" style="stop-color:#fff"/><stop offset="1" style="stop-color:#98b4f7"/></linearGradient><path d="M711.6,267l4.6,2.7c1.3,0.7,2.8,0.7,4.1,0l4.6-2.7c0.5-0.3,0.7-1,0.4-1.5c-0.1-0.2-0.2-0.3-0.4-0.4l-4.6-2.7 c-1.3-0.7-2.8-0.7-4.1,0l-4.6,2.7c-0.5,0.3-0.7,1-0.4,1.5C711.3,266.8,711.4,266.9,711.6,267z" class="st91"/><linearGradient id="SVGID_83_" x1="1085.66" x2="1085.66" y1="-419" y2="-149.99" gradientTransform="matrix(1 0 0 -1 -357.13 -26.09)" gradientUnits="userSpaceOnUse"><stop offset="0" style="stop-color:#fff"/><stop offset="1" style="stop-color:#98b4f7"/></linearGradient><path d="M721.9,261.1l4.6,2.7c1.3,0.7,2.8,0.7,4.1,0l4.6-2.7c0.5-0.3,0.7-1,0.4-1.5c-0.1-0.2-0.2-0.3-0.4-0.4 l-4.6-2.7c-1.3-0.7-2.8-0.7-4.1,0l-4.6,2.7c-0.5,0.3-0.7,1-0.4,1.5C721.6,260.9,721.7,261,721.9,261.1z" class="st92"/><linearGradient id="SVGID_84_" x1="1095.916" x2="1095.916" y1="-419" y2="-149.99" gradientTransform="matrix(1 0 0 -1 -357.13 -26.09)" gradientUnits="userSpaceOnUse"><stop offset="0" style="stop-color:#fff"/><stop offset="1" style="stop-color:#98b4f7"/></linearGradient><path d="M732.1,255.2l4.6,2.7c1.3,0.7,2.8,0.7,4.1,0l4.6-2.7c0.5-0.3,0.7-1,0.4-1.5c-0.1-0.2-0.2-0.3-0.4-0.4 l-4.6-2.7c-1.3-0.7-2.8-0.7-4.1,0l-4.6,2.7c-0.5,0.3-0.7,1-0.4,1.5C731.8,255,732,255.1,732.1,255.2z" class="st93"/><linearGradient id="SVGID_85_" x1="1106.14" x2="1106.14" y1="-419" y2="-149.99" gradientTransform="matrix(1 0 0 -1 -357.13 -26.09)" gradientUnits="userSpaceOnUse"><stop offset="0" style="stop-color:#fff"/><stop offset="1" style="stop-color:#98b4f7"/></linearGradient><path d="M742.3,249.3l4.6,2.7c1.3,0.7,2.8,0.7,4.1,0l4.6-2.7c0.5-0.3,0.7-1,0.4-1.5c-0.1-0.2-0.2-0.3-0.4-0.4 l-4.6-2.7c-1.3-0.7-2.8-0.7-4.1,0l-4.6,2.7c-0.5,0.3-0.7,1-0.4,1.5C742,249.1,742.2,249.2,742.3,249.3z" class="st94"/><linearGradient id="SVGID_86_" x1="1116.38" x2="1116.38" y1="-419" y2="-149.99" gradientTransform="matrix(1 0 0 -1 -357.13 -26.09)" gradientUnits="userSpaceOnUse"><stop offset="0" style="stop-color:#fff"/><stop offset="1" style="stop-color:#98b4f7"/></linearGradient><path d="M752.6,243.4l4.6,2.7c1.3,0.7,2.8,0.7,4.1,0l4.6-2.7c0.5-0.3,0.7-1,0.4-1.5c-0.1-0.2-0.2-0.3-0.4-0.4 l-4.6-2.7c-1.3-0.7-2.8-0.7-4.1,0l-4.6,2.7c-0.5,0.3-0.7,1-0.4,1.5C752.3,243.2,752.4,243.3,752.6,243.4z" class="st95"/><linearGradient id="SVGID_87_" x1="1126.62" x2="1126.62" y1="-419" y2="-149.99" gradientTransform="matrix(1 0 0 -1 -357.13 -26.09)" gradientUnits="userSpaceOnUse"><stop offset="0" style="stop-color:#fff"/><stop offset="1" style="stop-color:#98b4f7"/></linearGradient><path d="M762.8,237.5l4.6,2.7c1.3,0.7,2.8,0.7,4.1,0l4.6-2.7c0.5-0.3,0.7-1,0.4-1.5c-0.1-0.2-0.2-0.3-0.4-0.4 l-4.6-2.7c-1.3-0.7-2.8-0.7-4.1,0l-4.6,2.7c-0.5,0.3-0.7,1-0.4,1.5C762.5,237.3,762.7,237.4,762.8,237.5z" class="st96"/><linearGradient id="SVGID_88_" x1="1136.838" x2="1136.838" y1="-419" y2="-149.99" gradientTransform="matrix(1 0 0 -1 -357.13 -26.09)" gradientUnits="userSpaceOnUse"><stop offset="0" style="stop-color:#fff"/><stop offset="1" style="stop-color:#98b4f7"/></linearGradient><path d="M773.1,231.6l4.6,2.7c1.3,0.7,2.8,0.7,4.1,0l4.6-2.7c0.5-0.3,0.7-1,0.4-1.5c-0.1-0.2-0.2-0.3-0.4-0.4 l-4.6-2.7c-1.3-0.7-2.8-0.7-4.1,0l-4.6,2.7c-0.5,0.3-0.7,0.9-0.5,1.5C772.7,231.4,772.9,231.6,773.1,231.6z" class="st97"/><linearGradient id="SVGID_89_" x1="1147.1" x2="1147.1" y1="-419" y2="-149.99" gradientTransform="matrix(1 0 0 -1 -357.13 -26.09)" gradientUnits="userSpaceOnUse"><stop offset="0" style="stop-color:#fff"/><stop offset="1" style="stop-color:#98b4f7"/></linearGradient><path d="M783.3,225.8l4.6,2.7c1.3,0.7,2.8,0.7,4.1,0l4.6-2.7c0.5-0.3,0.7-1,0.4-1.5c-0.1-0.2-0.2-0.3-0.4-0.4 l-4.6-2.7c-1.3-0.7-2.8-0.7-4.1,0l-4.6,2.7c-0.5,0.3-0.7,1-0.4,1.5C783,225.5,783.1,225.7,783.3,225.8z" class="st98"/><linearGradient id="SVGID_90_" x1="1157.34" x2="1157.34" y1="-419" y2="-149.99" gradientTransform="matrix(1 0 0 -1 -357.13 -26.09)" gradientUnits="userSpaceOnUse"><stop offset="0" style="stop-color:#fff"/><stop offset="1" style="stop-color:#98b4f7"/></linearGradient><path d="M793.5,219.9l4.6,2.7c1.3,0.7,2.8,0.7,4.1,0l4.6-2.7c0.5-0.3,0.7-1,0.4-1.5c-0.1-0.2-0.2-0.3-0.4-0.4 l-4.6-2.7c-1.3-0.7-2.8-0.7-4.1,0l-4.6,2.7c-0.5,0.3-0.7,1-0.4,1.5C793.2,219.7,793.4,219.8,793.5,219.9z" class="st99"/><linearGradient id="SVGID_91_" x1="1167.59" x2="1167.59" y1="-419" y2="-149.99" gradientTransform="matrix(1 0 0 -1 -357.13 -26.09)" gradientUnits="userSpaceOnUse"><stop offset="0" style="stop-color:#fff"/><stop offset="1" style="stop-color:#98b4f7"/></linearGradient><path d="M803.8,214l4.6,2.7c1.3,0.7,2.8,0.7,4.1,0l4.6-2.7c0.5-0.3,0.7-1,0.4-1.5c-0.1-0.2-0.2-0.3-0.4-0.4 l-4.6-2.7c-1.3-0.7-2.8-0.7-4.1,0l-4.6,2.7c-0.5,0.3-0.7,1-0.4,1.5C803.5,213.7,803.6,213.9,803.8,214z" class="st100"/><linearGradient id="SVGID_92_" x1="1182.665" x2="1182.665" y1="-419" y2="-149.99" gradientTransform="matrix(1 0 0 -1 -357.13 -26.09)" gradientUnits="userSpaceOnUse"><stop offset="0" style="stop-color:#fff"/><stop offset="1" style="stop-color:#98b4f7"/></linearGradient><path d="M814,208.1l4.6,2.7c1.3,0.7,2.8,0.7,4.1,0l14.4-8.3c0.5-0.3,0.7-1,0.4-1.5c-0.1-0.2-0.2-0.3-0.4-0.4 l-4.6-2.7c-1.3-0.7-2.8-0.7-4.1,0l-14.4,8.3c-0.5,0.3-0.7,1-0.4,1.5C813.7,207.9,813.8,208,814,208.1z" class="st101"/><linearGradient id="SVGID_93_" x1="1066.51" x2="1066.51" y1="-419" y2="-149.99" gradientTransform="matrix(1 0 0 -1 -357.13 -26.09)" gradientUnits="userSpaceOnUse"><stop offset="0" style="stop-color:#fff"/><stop offset="1" style="stop-color:#98b4f7"/></linearGradient><path d="M701,285.1l4.6,2.7c1.3,0.7,2.8,0.7,4.1,0l8.1-4.6c0.5-0.3,0.7-1,0.4-1.5c-0.1-0.2-0.2-0.3-0.4-0.4 l-4.6-2.7c-1.3-0.7-2.8-0.7-4.1,0l-8.1,4.6c-0.5,0.3-0.7,1-0.4,1.5C700.7,284.9,700.8,285,701,285.1z" class="st102"/><linearGradient id="SVGID_94_" x1="1078.47" x2="1078.47" y1="-419" y2="-149.99" gradientTransform="matrix(1 0 0 -1 -357.13 -26.09)" gradientUnits="userSpaceOnUse"><stop offset="0" style="stop-color:#fff"/><stop offset="1" style="stop-color:#98b4f7"/></linearGradient><path d="M714.7,277.2l4.6,2.7c1.3,0.7,2.8,0.7,4.1,0l4.6-2.7c0.5-0.3,0.7-1,0.4-1.5c-0.1-0.2-0.2-0.3-0.4-0.4 l-4.6-2.7c-1.3-0.7-2.8-0.7-4.1,0l-4.6,2.7c-0.5,0.3-0.7,1-0.4,1.5C714.4,277,714.5,277.1,714.7,277.2z" class="st103"/><linearGradient id="SVGID_95_" x1="1088.71" x2="1088.71" y1="-419" y2="-149.99" gradientTransform="matrix(1 0 0 -1 -357.13 -26.09)" gradientUnits="userSpaceOnUse"><stop offset="0" style="stop-color:#fff"/><stop offset="1" style="stop-color:#98b4f7"/></linearGradient><path d="M724.9,271.3l4.6,2.7c1.3,0.7,2.8,0.7,4.1,0l4.6-2.7c0.5-0.3,0.7-1,0.4-1.5c-0.1-0.2-0.2-0.3-0.4-0.4 l-4.6-2.7c-1.3-0.7-2.8-0.7-4.1,0l-4.6,2.7c-0.5,0.3-0.7,1-0.4,1.5C724.6,271.1,724.7,271.2,724.9,271.3z" class="st104"/><linearGradient id="SVGID_96_" x1="1098.961" x2="1098.961" y1="-419" y2="-149.99" gradientTransform="matrix(1 0 0 -1 -357.13 -26.09)" gradientUnits="userSpaceOnUse"><stop offset="0" style="stop-color:#fff"/><stop offset="1" style="stop-color:#98b4f7"/></linearGradient><path d="M735.2,265.4l4.6,2.7c1.3,0.7,2.8,0.7,4.1,0l4.6-2.7c0.5-0.3,0.7-1,0.4-1.5c-0.1-0.2-0.2-0.3-0.4-0.4 l-4.6-2.7c-1.3-0.7-2.8-0.7-4.1,0l-4.6,2.7c-0.5,0.3-0.7,1-0.4,1.5C734.9,265.2,735,265.4,735.2,265.4z" class="st105"/><linearGradient id="SVGID_97_" x1="1129.662" x2="1129.662" y1="-419" y2="-149.99" gradientTransform="matrix(1 0 0 -1 -357.13 -26.09)" gradientUnits="userSpaceOnUse"><stop offset="0" style="stop-color:#fff"/><stop offset="1" style="stop-color:#98b4f7"/></linearGradient><path d="M745.4,259.6l4.6,2.7c1.3,0.7,2.8,0.7,4.1,0l45.6-26.2c0.5-0.3,0.7-1,0.4-1.5c-0.1-0.2-0.2-0.3-0.4-0.4 l-4.6-2.7c-1.3-0.7-2.8-0.7-4.1,0l-45.6,26.2c-0.5,0.3-0.7,1-0.4,1.5C745.1,259.3,745.2,259.5,745.4,259.6z" class="st106"/><linearGradient id="SVGID_98_" x1="1160.4" x2="1160.4" y1="-419" y2="-149.99" gradientTransform="matrix(1 0 0 -1 -357.13 -26.09)" gradientUnits="userSpaceOnUse"><stop offset="0" style="stop-color:#fff"/><stop offset="1" style="stop-color:#98b4f7"/></linearGradient><path d="M796.6,230.1l4.6,2.7c1.3,0.7,2.8,0.7,4.1,0l4.6-2.7c0.5-0.3,0.7-1,0.4-1.5c-0.1-0.2-0.2-0.3-0.4-0.4 l-4.6-2.7c-1.3-0.7-2.8-0.7-4.1,0l-4.6,2.7c-0.5,0.3-0.7,1-0.4,1.5C796.3,229.9,796.4,230,796.6,230.1z" class="st107"/><linearGradient id="SVGID_99_" x1="1170.64" x2="1170.64" y1="-419" y2="-149.99" gradientTransform="matrix(1 0 0 -1 -357.13 -26.09)" gradientUnits="userSpaceOnUse"><stop offset="0" style="stop-color:#fff"/><stop offset="1" style="stop-color:#98b4f7"/></linearGradient><path d="M806.8,224.2l4.6,2.7c1.3,0.7,2.8,0.7,4.1,0l4.6-2.7c0.5-0.3,0.7-1,0.4-1.5c-0.1-0.2-0.2-0.3-0.4-0.4 l-4.6-2.7c-1.3-0.7-2.8-0.7-4.1,0l-4.6,2.7c-0.5,0.3-0.7,1-0.4,1.5C806.5,224,806.7,224.1,806.8,224.2z" class="st108"/><linearGradient id="SVGID_100_" x1="1180.88" x2="1180.88" y1="-419" y2="-149.99" gradientTransform="matrix(1 0 0 -1 -357.13 -26.09)" gradientUnits="userSpaceOnUse"><stop offset="0" style="stop-color:#fff"/><stop offset="1" style="stop-color:#98b4f7"/></linearGradient><path d="M817.1,218.3l4.6,2.7c1.3,0.7,2.8,0.7,4.1,0l4.6-2.7c0.5-0.3,0.7-1,0.4-1.5c-0.1-0.2-0.2-0.3-0.4-0.4 l-4.6-2.7c-1.3-0.7-2.8-0.7-4.1,0l-4.6,2.7c-0.5,0.3-0.7,1-0.4,1.5C816.8,218.1,816.9,218.2,817.1,218.3z" class="st109"/><linearGradient id="SVGID_101_" x1="1194.58" x2="1194.58" y1="-419" y2="-149.99" gradientTransform="matrix(1 0 0 -1 -357.13 -26.09)" gradientUnits="userSpaceOnUse"><stop offset="0" style="stop-color:#fff"/><stop offset="1" style="stop-color:#98b4f7"/></linearGradient><path d="M827.4,212.4l4.6,2.7c1.3,0.7,2.8,0.7,4.1,0l11.3-6.5c0.5-0.3,0.7-1,0.4-1.5c-0.1-0.2-0.2-0.3-0.4-0.4 l-4.6-2.7c-1.3-0.7-2.8-0.7-4.1,0l-11.3,6.5c-0.5,0.3-0.7,1-0.4,1.5C827.1,212.1,827.3,212.3,827.4,212.4z" class="st110"/><path d="M647,225.3L770.4,154c3.1-1.8,5.6-5.8,5.6-8.8L776,56l-134.6,77.7l0.1,89.1C641.4,226,643.9,227.1,647,225.3z" class="st6"/><path d="M641.3,133.8L776,56v-3.7c0-2.9-2.4-3.9-5.3-2.2l-124,71.6c-2.9,1.7-5.3,5.5-5.3,8.4L641.3,133.8 L641.3,133.8z" class="st111"/><polygon points="652.4 137.2 664.1 130.4 664.1 128.8 652.4 135.6" class="st111"/><polygon points="682.6 107.2 694.4 100.4 694.4 97.9 682.6 104.7" class="st6"/><polygon points="707.8 92.7 719.5 85.9 719.5 83.4 707.8 90.2" class="st15"/><polygon points="731.7 78.9 743.5 72.1 743.5 69.6 731.7 76.4" class="st15"/><polygon points="755.5 65.1 767.2 58.3 767.2 55.8 755.5 62.6" class="st15"/><polygon points="652.4 145.5 664.1 138.7 664.1 137.1 652.4 143.9" class="st111"/><polygon points="652.4 153.9 664.1 147.1 664.1 145.4 652.4 152.2" class="st111"/><polygon points="652.4 162.2 664.1 155.4 664.1 153.8 652.4 160.6" class="st111"/><polygon points="652.4 170.5 664.1 163.7 664.1 162.1 652.4 168.9" class="st111"/><polygon points="652.4 178.9 664.1 172.1 664.1 170.4 652.4 177.3" class="st111"/><polygon points="652.4 187.2 664.1 180.4 664.1 178.8 652.4 185.6" class="st111"/><polygon points="652.4 195.5 664.1 188.7 664.1 187.1 652.4 193.9" class="st111"/><polygon points="652.4 203.9 664.1 197.1 664.1 195.5 652.4 202.3" class="st111"/><polygon points="652.4 212.2 664.1 205.4 664.1 203.8 652.4 210.6" class="st111"/><polygon points="677.3 207.8 676.3 208.4 676.3 113.6 677.3 113" class="st111"/><polygon points="676.5 122.2 676.5 121.1 776 63.7 776 64.8" class="st111"/><polygon points="676.5 130.5 676.5 129.4 776 72 776 73.1" class="st111"/><polygon points="676.5 138.8 676.5 137.7 776 80.3 776 81.4" class="st111"/><polygon points="676.5 147.2 676.5 146.1 776 88.7 776 89.8" class="st111"/><polygon points="676.5 155.5 676.5 154.4 776 97 776 98.1" class="st111"/><polygon points="676.5 163.8 676.5 162.8 776 105.3 776 106.4" class="st111"/><polygon points="676.5 172.2 676.5 171.1 776 113.7 776 114.8" class="st111"/><polygon points="676.5 180.5 676.5 179.4 776 122 776 123.1" class="st111"/><polygon points="676.5 189.2 676.5 188.1 776 130.7 776 131.8" class="st111"/><polygon points="676.5 197.2 676.5 196.1 776 138.7 776 139.8" class="st111"/><polygon points="676.3 155.1 701.2 140.7 701.2 106.8 676.3 121.2" class="st29"/><polygon points="676.3 179.9 701.2 165.5 701.2 156.9 676.3 171.2" class="st29"/><polygon points="701.2 157.4 726.1 143 726.1 117.5 701.2 131.8" class="st111"/><polygon points="751.1 120.2 776 105.9 776 80.3 751.1 94.7" class="st29"/><polygon points="676.3 123.6 701.2 109.2 701.2 106.8 676.3 121.2" class="st25"/><polygon points="701.2 134.2 726.1 119.8 726.1 117.5 701.2 131.8" class="st25"/><polygon points="751.1 97.1 776 82.7 776 80.3 751.1 94.7" class="st25"/><polygon points="676.3 173.6 701.2 159.2 701.2 156.9 676.3 171.2" class="st25"/><polygon points="679.1 126.1 694.4 117.3 694.4 115.1 679.1 123.9" class="st15"/><polygon points="679.1 129.5 689.6 123.5 689.6 121.3 679.1 127.3" class="st15"/><polygon points="753.5 100 768.8 91.2 768.8 89 753.5 97.8" class="st15"/><polygon points="753.5 103.4 757.6 101 757.6 98.9 753.5 101.2" class="st15"/><polygon points="703.9 136.9 723.4 125.6 723.4 123.5 703.9 134.7" class="st15"/><polygon points="703.9 140.3 714.4 134.2 714.4 132 703.9 138.1" class="st15"/><polygon points="679.1 176.1 694.4 167.3 694.4 165.1 679.1 173.9" class="st15"/><path d="M701.9,166.9c-2.2-1.6-5.3-2.2-5.5-1.7c-0.5,1.1,1.8,0.9,1.7,2.1s-0.7,2.5,0.8,2.9 C701.6,170.9,703.5,168,701.9,166.9z" class="st15"/><circle cx="733.9" cy="175.4" r="1.9" class="st15"/><linearGradient id="SVGID_102_" x1="1094.823" x2="1097.163" y1="-183.623" y2="-200.813" gradientTransform="matrix(1 0 0 -1 -357.13 -26.09)" gradientUnits="userSpaceOnUse"><stop offset="0" style="stop-color:#0a49ac"/><stop offset=".22" style="stop-color:#0d4cb1"/><stop offset=".49" style="stop-color:#1453c0"/><stop offset=".78" style="stop-color:#205fd9"/><stop offset="1" style="stop-color:#2b6af0"/></linearGradient><path d="M734.7,148c2.2,1.1,8.8,8.8,10.1,10.6s-0.2,3.8-1,4.6s-7.6,10.9-8.1,11.5s-3.2-1.4-3.2-1.4s5.5-10.9,5.8-12 s-4.2-4-4.2-4L734.7,148z" class="st112"/><linearGradient id="SVGID_103_" x1="1070.53" x2="1171.56" y1="-259.05" y2="-259.05" gradientTransform="matrix(1 0 0 -1 -357.13 -26.09)" gradientUnits="userSpaceOnUse"><stop offset="0" style="stop-color:#98b4f7"/><stop offset=".04" style="stop-color:#98b4f7;stop-opacity:.93"/><stop offset=".19" style="stop-color:#98b4f7;stop-opacity:.68"/><stop offset=".34" style="stop-color:#98b4f7;stop-opacity:.48"/><stop offset=".49" style="stop-color:#98b4f7;stop-opacity:.3"/><stop offset=".63" style="stop-color:#98b4f7;stop-opacity:.17"/><stop offset=".77" style="stop-color:#98b4f7;stop-opacity:8.000000e-02"/><stop offset=".89" style="stop-color:#98b4f7;stop-opacity:2.000000e-02"/><stop offset="1" style="stop-color:#98b4f7;stop-opacity:0"/></linearGradient><path d="M717.6,235l12,0.5l40,4.9l38.8,2.6l6-16.2l-63.6-1.8l-17.6-2.2l0.4,5.4l17.8,1.6c0,0,17.5,3.4,17.2,3.5 s-41.7-1.6-41.7-1.6l-13.5-3.1L717.6,235z" class="st113"/><path d="M718.2,234.8c-2,1.2-7.9-2.9-8.5-4.5s2-2.2,3.7-1.7s5.2,1.5,5.2,1.5S719.5,234.1,718.2,234.8z" class="st29"/><path d="M734.7,228.1c-2,1.2-7.9-2.9-8.5-4.5s2-2.2,3.7-1.7s5.2,1.5,5.2,1.5S736,227.4,734.7,228.1z" class="st29"/><path d="M714.4,181.2c0,0-2.8,15-2.3,19.1s2.1,29.3,2.3,31.3c0.2,1.6,4.2,1.4,4.2-0.8s-0.5-28.2,6-36.3 c0,0,6.3,29.6,6.7,31.2s3.9,1.2,3.9-1.3c0-3.6-2.3-20.5-2-26.5c0.4-8.1,0.7-16.4-0.2-22.7L714.4,181.2z" class="st25"/><linearGradient id="SVGID_104_" x1="1074.546" x2="1097.776" y1="-183.933" y2="-217.683" gradientTransform="matrix(1 0 0 -1 -357.13 -26.09)" gradientUnits="userSpaceOnUse"><stop offset="0" style="stop-color:#0a49ac"/><stop offset=".22" style="stop-color:#0d4cb1"/><stop offset=".49" style="stop-color:#1453c0"/><stop offset=".78" style="stop-color:#205fd9"/><stop offset="1" style="stop-color:#2b6af0"/></linearGradient><path d="M713.3,158.3c0,6.6,2.3,20.7,0.7,28.2c-1.4,6.7,21.3-0.2,20.2-7c-1.6-9.6,3.9-22.8,1.1-30.5 C733,142.6,713.3,153.7,713.3,158.3z" class="st114"/><path d="M716.5,182.5c0.1-2.6,0.4-10.5-0.5-9c0,0.1-1,0.4-2,0.8c0.2,2.8,0.3,5.2,0.3,6.8c0,0-2.8,15-2.3,19.1 s2.1,29.3,2.3,31.3c0.1,0.4,0.4,0.8,0.8,0.9c-0.2-4.6-1.2-29.3-1.3-31c0.2-3.6,0.6-7.1,1.2-10.6 C715.7,188.2,716.2,185.4,716.5,182.5z" class="st15"/><linearGradient id="SVGID_105_" x1="1067.393" x2="1062.763" y1="-195.776" y2="-203.906" gradientTransform="matrix(1 0 0 -1 -357.13 -26.09)" gradientUnits="userSpaceOnUse"><stop offset="0" style="stop-color:#0a49ac"/><stop offset=".22" style="stop-color:#0d4cb1"/><stop offset=".49" style="stop-color:#1453c0"/><stop offset=".78" style="stop-color:#205fd9"/><stop offset="1" style="stop-color:#2b6af0"/></linearGradient><path d="M713.1,158.7c-0.2,3.2-0.6,13-2.2,12.2s-7.1-3.5-8.4-4s-3.1,2.6-1.8,3.5s12.5,9.2,14.6,8.2 s5.4-11.6,6.2-15.1S713.5,153.1,713.1,158.7z" class="st115"/><path d="M726.2,148.2c-4.5,1.5-11.1,5.9-12.6,8.7c-0.4,0.5-0.6,1.1-0.6,1.8c-0.2,3.1-0.7,12.1-2.2,12.3l0,0 c0.7,0.2,1.3-0.1,1.7-0.7c0.4-0.7,1.7-6.2,2.1-10.5c0.2-2.4,1-2.9,5.5-6.3s10.1-5.4,12.2-6.4C732.5,147.1,730.7,146.7,726.2,148.2 z" class="st15"/><path d="M718.6,152.3c1.4-1,4.8,3.5,8.8,1.2c2.9-1.7,1.3-3.6,0.5-5.4c-0.6-1.5-1-3.1-1.2-4.7l-5.9,1.1 c0,0,0.4,1.5,1,3.6C722.6,150.9,718.6,152.3,718.6,152.3z" class="st15"/><path d="M716.2,140.9c0.5,2.7,2.3,7.6,3.4,7.8s4.4,0.1,5.8-1.6c1.9-2.3,2.6-5.3,1.9-8.2 C725.9,132.2,714.7,133.4,716.2,140.9z" class="st15"/><path d="M715.1,135.3c1.2,0.3,3.3-1.2,6.2-1.2s5.2,0.4,6.2,4.4s0.2,6.3-0.8,7.4s-4.3,0.8-5.8-1.2s-4.6-2.4-5.2-4 c-0.4-0.9-0.4-1.8,0-2.7C715,137.1,714.8,136.2,715.1,135.3z" class="st25"/><linearGradient id="SVGID_106_" x1="604.744" x2="647.744" y1="-274.533" y2="-293.203" gradientTransform="matrix(1 0 0 -1 -357.13 -26.09)" gradientUnits="userSpaceOnUse"><stop offset="0" style="stop-color:#98b4f7"/><stop offset=".04" style="stop-color:#98b4f7;stop-opacity:.93"/><stop offset=".19" style="stop-color:#98b4f7;stop-opacity:.68"/><stop offset=".34" style="stop-color:#98b4f7;stop-opacity:.48"/><stop offset=".49" style="stop-color:#98b4f7;stop-opacity:.3"/><stop offset=".63" style="stop-color:#98b4f7;stop-opacity:.17"/><stop offset=".77" style="stop-color:#98b4f7;stop-opacity:8.000000e-02"/><stop offset=".89" style="stop-color:#98b4f7;stop-opacity:2.000000e-02"/><stop offset="1" style="stop-color:#98b4f7;stop-opacity:0"/></linearGradient><path d="M242.5,253.4c0,0,15,5.2,22.6,7.7c7.6,2.5,19.1,4.8,19.1,4.8c0.7-2.8-0.3-5.8-2.6-7.6l-16.4-9.5 L242.5,253.4z" class="st116"/><path d="M255.5,252c0,0,3.1,0.8,9.8-3.1l6,3.5c0,0,0.8-6.2-2.5-9.2c-1.8-1.7-4.3-2.5-6.7-1.9c-0.8-1.8-2.6-3-4.6-2.9 C253.9,238.2,255.5,252,255.5,252z" class="st25"/><linearGradient id="SVGID_107_" x1="608.118" x2="604.288" y1="-244.11" y2="-287.78" gradientTransform="matrix(1 0 0 -1 -357.13 -26.09)" gradientUnits="userSpaceOnUse"><stop offset="0" style="stop-color:#0a49ac"/><stop offset=".22" style="stop-color:#0d4cb1"/><stop offset=".49" style="stop-color:#1453c0"/><stop offset=".78" style="stop-color:#205fd9"/><stop offset="1" style="stop-color:#2b6af0"/></linearGradient><path d="M260.4,251.2c1.6-7.1-4.7-8.7-4.2-13c0-4.3,3.9-9.9,3.9-17.1c0-4.7-19.5-17.5-19.4-6.5s1.3,11.5,0.9,15 c-0.9,7.9-9.9,15.8-2.3,22S260.4,251.2,260.4,251.2z" class="st117"/><path d="M260,221.1c0.7,1.9,3.6,7.8,5,7.2s9.1-4.7,10.3-5s2.3,1.7,1.2,2.5s-12.8,9-14.7,8.3 c-2.2-0.8-7.8-6.6-8.5-9.7S258.3,216.4,260,221.1z" class="st15"/><path d="M254.9,214.7c-2.9,0.1-3.9,3.9-7.9,1.6c-2.9-1.7-1.3-3.6-0.5-5.4c0.6-1.5,1-3.1,1.2-4.7l5.9,1.2 c0,0-0.4,1.5-1,3.6C252,213.3,254.9,214.7,254.9,214.7z" class="st15"/><path d="M258.2,203.7c-0.5,2.7-2.3,7.7-3.4,7.8s-4.4,0.1-5.8-1.6c-1.9-2.3-2.6-5.3-1.9-8.2 C248.5,195,259.7,196.2,258.2,203.7z" class="st15"/><linearGradient id="SVGID_108_" x1="617.152" x2="587.652" y1="-233.568" y2="-238.398" gradientTransform="matrix(1 0 0 -1 -357.13 -26.09)" gradientUnits="userSpaceOnUse"><stop offset="0" style="stop-color:#fff"/><stop offset="1" style="stop-color:#98b4f7"/></linearGradient><path d="M259.4,198.1c-1.2,0.3-3.3-1.2-6.1-1.2c-2.8,0-6.2,0.7-6.9,4.8c-0.4,2.8-2.5,2-2.9,5.2 c-0.2,2.3-4.8,4.5-5.2,7.6c-0.7,5.5,2.3,7.7,6.4,7.4c3.6-0.3,4.9-1.3,6.4-2.8c1.3-1.2,1.1-5.9,0.3-8.5c-0.6-2.3,2.4-0.6,2.9-2.8 c0.6-2.5,4-2.9,4.6-4.5c0.4-0.9,0.4-1.8,0-2.7C259.4,199.9,259.6,199,259.4,198.1z" class="st118"/><path d="M279.6,220.9c-0.2-0.4-4.8,1.7-4.9,2.8c-0.4,3.6,4.4,2.3,3.7,0.6S280,221.6,279.6,220.9z" class="st15"/><polygon points="632.4 33.8 632.4 50.5 685 20.1 685 3.4" class="st6"/><polygon points="632.4 30.4 632.4 33.8 685 3.4 685 0" class="st25"/><polygon points="636.8 36.1 636.8 39.1 681 13.5 681 10.6" class="st15"/><polygon points="636.8 41.2 636.8 44.2 650.9 36 650.9 33" class="st15"/><ellipse cx="633.3" cy="62.5" class="st6" rx="3" ry="1.7"/><ellipse cx="553.4" cy="141.4" class="st25" rx="9.1" ry="6.3" transform="matrix(0.4983 -0.867 0.867 0.4983 155.0256 550.7204)"/><polygon points="544.3 163.8 544.3 180.5 596.9 150.1 596.9 133.4" class="st6"/><polygon points="544.3 160.4 544.3 163.8 596.9 133.4 596.9 130" class="st25"/><polygon points="548.7 166.1 548.7 169.1 592.9 143.5 592.9 140.5" class="st15"/><polygon points="548.7 171.2 548.7 174.2 576.9 157.8 576.9 154.9" class="st15"/><ellipse cx="547.1" cy="193.5" class="st6" rx="2.6" ry="1.5"/><polyline points="551.3 144.5 553.2 145.9 556.8 138.3" class="st30"/><polygon points="329.1 126.1 329.1 144.4 271.4 111.1 271.4 92.8" class="st6"/><polygon points="329.1 122.4 329.1 126.1 271.4 92.8 271.4 89.1" class="st25"/><polygon points="306.6 118.4 306.6 121.7 275.9 103.8 275.9 100.5" class="st15"/><polygon points="275.9 106.2 275.9 109.5 288.8 116.9 288.8 113.6" class="st15"/><ellipse cx="328.1" cy="159.6" class="st6" rx="2.6" ry="1.5"/></g></g></svg>