<svg xmlns="http://www.w3.org/2000/svg" xmlns:xlink="http://www.w3.org/1999/xlink" width="1440" height="1953" version="1.1" viewBox="0 0 1440 1953"><title>BG</title><desc>Created with Sketch.</desc><defs><linearGradient id="linearGradient-1" x1="88.688%" x2="20.623%" y1="108.527%" y2="-20.847%"><stop offset="0%" stop-color="#3B2EB9"/><stop offset="100%" stop-color="#CA94FF"/></linearGradient><linearGradient id="linearGradient-2" x1="50%" x2="50%" y1="0%" y2="99.659%"><stop offset="0%" stop-color="#CFFFFE"/><stop offset="100%" stop-color="#5EAAE1"/></linearGradient><linearGradient id="linearGradient-3" x1="123.173%" x2="29.07%" y1="-201.368%" y2="325.401%"><stop offset="0%" stop-color="#FFABAB"/><stop offset="100%" stop-color="#F8FE88"/></linearGradient><linearGradient id="linearGradient-4" x1="100%" x2="-38.209%" y1="118.823%" y2="-92.695%"><stop offset="0%" stop-color="#ABE5FF"/><stop offset="100%" stop-color="#BC88FE"/></linearGradient><linearGradient id="linearGradient-5" x1="50%" x2="50%" y1="0%" y2="99.659%"><stop offset="0%" stop-color="#FFABAB"/><stop offset="100%" stop-color="#BC88FE"/></linearGradient><linearGradient id="linearGradient-6" x1="50%" x2="50%" y1="0%" y2="99.659%"><stop offset="0%" stop-color="#CFFFFE"/><stop offset="100%" stop-color="#51CF71"/></linearGradient></defs><g id="Website-/-Desktop-(Reworked)" fill="none" fill-rule="evenodd" stroke="none" stroke-width="1"><g id="4.-Pricing" transform="translate(0.000000, -922.000000)"><g id="BG" transform="translate(-832.000000, 928.000000)"><path id="Rectangle-20" fill="url(#linearGradient-1)" d="M10.7118136,1127.99175 L1876.71181,1127.99175 C1998.21446,1127.99175 2096.71181,1226.4891 2096.71181,1347.99175 L2096.71181,1367.99175 C2096.71181,1489.49439 1998.21446,1587.99175 1876.71181,1587.99175 L10.7118136,1587.99175 L10.7118136,1127.99175 Z" opacity=".08" transform="translate(1053.711814, 1357.991748) rotate(22.000000) translate(-1053.711814, -1357.991748)"/><rect id="Rectangle-5-Copy-6" width="102" height="102" x="2063.125" y="1044.875" stroke="url(#linearGradient-2)" stroke-width="38" opacity=".3" rx="20" transform="translate(2114.124892, 1095.875108) rotate(-315.000000) translate(-2114.124892, -1095.875108)"/><rect id="Rectangle-5-Copy-7" width="52" height="52" x="938.841" y="1661.77" stroke="url(#linearGradient-3)" stroke-width="20" opacity=".2" rx="15" transform="translate(964.840620, 1687.769553) rotate(-315.000000) translate(-964.840620, -1687.769553)"/><rect id="Rectangle-5" width="152" height="152" x="746" y="528.48" stroke="url(#linearGradient-4)" stroke-width="40" opacity=".3" rx="46" transform="translate(822.000000, 604.480231) rotate(-315.000000) translate(-822.000000, -604.480231)"/><rect id="Rectangle-5-Copy-2" width="106" height="106" x="2208.953" y="439.953" stroke="url(#linearGradient-5)" stroke-width="38" opacity=".1" rx="32.2" transform="translate(2261.953319, 492.953319) rotate(-315.000000) translate(-2261.953319, -492.953319)"/><rect id="Rectangle-5-Copy-4" width="106" height="106" x="949.953" y="21.953" stroke="url(#linearGradient-5)" stroke-width="38" opacity=".1" rx="32.2" transform="translate(1002.953319, 74.953319) rotate(-315.000000) translate(-1002.953319, -74.953319)"/><rect id="Rectangle-5-Copy-5" width="106" height="106" x="1966.953" y="170" stroke="url(#linearGradient-6)" stroke-width="38" opacity=".3" rx="32.2" transform="translate(2019.953319, 223.000000) rotate(-315.000000) translate(-2019.953319, -223.000000)"/><rect id="Rectangle-5-Copy-5" width="136" height="136" x="759.953" y="1777.167" stroke="url(#linearGradient-6)" stroke-width="38" opacity=".3" rx="32.2" transform="translate(827.953319, 1845.166522) rotate(-315.000000) translate(-827.953319, -1845.166522)"/><rect id="Rectangle-5-Copy-3" width="42" height="42" x="1171" y="304.858" stroke="url(#linearGradient-5)" stroke-width="12" opacity=".3" rx="10" transform="translate(1192.000000, 325.857864) rotate(-315.000000) translate(-1192.000000, -325.857864)"/></g></g></g></svg>